<?xml version="1.0" encoding="utf-8"?>
<!-- Generator: Adobe Illustrator 23.0.3, SVG Export Plug-In . SVG Version: 6.00 Build 0)  -->
<svg version="1.1" xmlns="http://www.w3.org/2000/svg" xmlns:xlink="http://www.w3.org/1999/xlink" x="0px" y="0px" width="441px"
	 height="313px" viewBox="0 0 441 313" style="enable-background:new 0 0 441 313;" xml:space="preserve">
<style type="text/css">
	.st0{clip-path:url(#SVGID_2_);}
	.st1{opacity:0.2;clip-path:url(#SVGID_4_);fill:#F3802A;}
	.st2{clip-path:url(#SVGID_4_);}
	.st3{opacity:0.2;fill:#9254A0;}
	.st4{opacity:0.4;fill:#F3802A;}
	.st5{opacity:0.3;fill:#F3802A;}
	.st6{opacity:0.2;fill:#F3802A;}
	.st7{opacity:0.5;fill:#EA202D;}
	.st8{opacity:0.5;fill:#F3802A;}
	.st9{opacity:0.5;clip-path:url(#SVGID_4_);fill:#EA202D;}
	.st10{opacity:0.5;clip-path:url(#SVGID_4_);fill:#F3802A;}
	.st11{fill:#FFFFFF;}
	.st12{clip-path:url(#SVGID_5_);}
	.st13{fill:#CCCCCC;}
	.st14{fill:#383E97;}
	.st15{fill:#2B2D73;}
	.st16{fill:#F3802A;}
	.st17{fill:#2D3287;}
	.st18{fill:url(#SVGID_6_);}
	.st19{fill:url(#SVGID_8_);}
	.st20{fill:url(#SVGID_9_);}
	.st21{fill:url(#SVGID_10_);}
	.st22{fill:url(#SVGID_11_);}
	.st23{fill:url(#SVGID_12_);}
	.st24{fill:url(#SVGID_13_);}
	.st25{fill:url(#SVGID_14_);}
	.st26{fill:url(#SVGID_15_);}
	.st27{fill:url(#SVGID_16_);}
	.st28{fill:url(#SVGID_17_);}
	.st29{fill:url(#SVGID_18_);}
	.st30{fill:url(#SVGID_19_);}
	.st31{fill:url(#SVGID_20_);}
	.st32{fill:url(#SVGID_21_);}
	.st33{fill:url(#SVGID_22_);}
	.st34{fill:url(#SVGID_23_);}
	.st35{fill:url(#SVGID_24_);}
	.st36{fill:#0872B8;}
	.st37{fill:#9C9C9C;}
	.st38{fill:url(#SVGID_25_);}
	.st39{fill:#EA202D;}
	.st40{fill:#F8A524;}
	.st41{opacity:0.2;fill:#6470B3;}
	.st42{fill:#FFFFFF;stroke:#F3802A;stroke-width:1.3007;stroke-miterlimit:10;}
	.st43{fill:url(#SVGID_26_);}
	.st44{fill:#FFFFFF;stroke:#F3802A;stroke-width:1.3009;stroke-miterlimit:10;}
	.st45{fill:url(#SVGID_27_);}
	.st46{fill:#15A464;}
	.st47{fill:#EF5D44;}
	.st48{fill:#F0EFED;}
	.st49{fill:#40C1D8;}
	.st50{fill:#2C180E;}
	.st51{fill:#A47357;}
	.st52{fill:#B3805D;}
	.st53{fill:none;stroke:#FFFFFF;stroke-width:2.3905;stroke-miterlimit:10;}
	.st54{fill:#BC865F;}
	.st55{fill:#3595D1;}
	.st56{fill:#1D7EC0;}
	.st57{fill:#432412;}
	.st58{fill:#EECBA6;}
	.st59{fill:#E6C1AE;}
	.st60{fill:#D4B3A3;}
	.st61{fill:#9254A0;}
	.st62{fill:#D96927;}
	.st63{fill:#666667;}
	.st64{display:none;}
	.st65{display:inline;}
	.st66{clip-path:url(#SVGID_28_);}
	.st67{fill:#BBD881;}
	.st68{fill:#6470B3;}
	.st69{fill:#272D68;}
	.st70{fill:#818CC4;}
	.st71{fill:#8C725E;}
	.st72{fill:#806957;}
	.st73{fill:#3F1F0F;}
	.st74{fill:#471F10;}
	.st75{fill:#CDB08F;}
	.st76{fill:#D9BE98;}
	.st77{fill:#5D3011;}
	.st78{opacity:0.6;fill:#076595;}
	.st79{fill:#4F2F23;}
	.st80{fill:#5B3726;}
	.st81{fill:#121110;}
	.st82{fill:#D7B09E;}
	.st83{fill:#AB832D;}
	.st84{opacity:0.3;fill:#383E97;}
	.st85{fill:#10101D;}
	.st86{fill:#823F30;}
	.st87{fill:#8C4831;}
	.st88{fill:#C29585;}
	.st89{fill:#91D7F2;}
	.st90{fill:#9A6656;}
	.st91{fill:#A2DBF6;}
	.st92{fill:#A36D59;}
	.st93{fill:#1E1614;}
	.st94{fill:#403635;}
	.st95{fill:#E3B19F;}
	.st96{fill:#EFBCA7;}
	.st97{fill:none;stroke:#3595D1;stroke-miterlimit:10;}
	.st98{clip-path:url(#SVGID_29_);}
	.st99{opacity:0.2;clip-path:url(#SVGID_31_);fill:#F3802A;}
	.st100{clip-path:url(#SVGID_31_);}
	.st101{opacity:0.5;clip-path:url(#SVGID_31_);fill:#EA202D;}
	.st102{opacity:0.5;clip-path:url(#SVGID_31_);fill:#F3802A;}
	.st103{fill:#003B71;}
	.st104{fill:#113D65;}
	.st105{clip-path:url(#SVGID_33_);}
	.st106{fill:#141E79;}
	.st107{fill:#212B8E;}
	.st108{fill:#2E33A5;}
	.st109{fill:#6473DC;}
	.st110{fill:#8392FC;}
	.st111{fill:#672B8D;}
	.st112{fill:#9453AC;}
	.st113{fill:#17CFE3;}
	.st114{fill:#1FF2FD;}
	.st115{fill:#019AEA;}
	.st116{fill:#0071B9;}
	.st117{fill:#9FDDFD;}
	.st118{fill:#CDCDCD;}
	.st119{fill:#9D9D9D;}
	.st120{fill:#FD8125;}
	.st121{fill:#EC1C2B;}
	.st122{fill:#19A564;}
	.st123{fill:#017FCB;}
	.st124{fill:#F0F0EE;}
	.st125{fill:#FDA721;}
	.st126{fill:#F65C42;}
	.st127{fill:#BBE680;}
	.st128{clip-path:url(#SVGID_34_);}
	.st129{clip-path:url(#SVGID_35_);}
	.st130{clip-path:url(#SVGID_37_);}
	.st131{clip-path:url(#SVGID_38_);}
	.st132{clip-path:url(#SVGID_39_);}
	.st133{clip-path:url(#SVGID_40_);}
	.st134{fill:none;stroke:#FFFFFF;stroke-width:2.6699;stroke-miterlimit:10;}
	.st135{clip-path:url(#SVGID_41_);}
	.st136{clip-path:url(#SVGID_43_);}
	.st137{fill:none;stroke:#1FF2FD;stroke-width:0.75;stroke-miterlimit:10;}
	.st138{fill:url(#SVGID_44_);}
	.st139{fill:url(#SVGID_45_);}
	.st140{fill:url(#SVGID_47_);}
	.st141{fill:url(#SVGID_48_);}
	.st142{fill:url(#SVGID_49_);}
	.st143{fill:url(#SVGID_51_);}
	.st144{fill:url(#SVGID_52_);}
	.st145{fill:url(#SVGID_53_);}
	.st146{fill:url(#SVGID_55_);}
	.st147{fill:url(#SVGID_56_);}
	.st148{fill:url(#SVGID_57_);}
	.st149{fill:url(#SVGID_59_);}
	.st150{fill:url(#SVGID_60_);}
	.st151{fill:url(#SVGID_61_);}
	.st152{fill:url(#SVGID_63_);}
	.st153{fill:url(#SVGID_64_);}
	.st154{fill:url(#SVGID_65_);}
	.st155{fill:url(#SVGID_67_);}
	.st156{opacity:8.000000e-02;}
	.st157{clip-path:url(#SVGID_68_);}
	.st158{clip-path:url(#SVGID_69_);}
	.st159{clip-path:url(#SVGID_71_);}
	.st160{clip-path:url(#SVGID_72_);}
	.st161{clip-path:url(#SVGID_73_);}
	.st162{clip-path:url(#SVGID_75_);}
	.st163{fill:#0872B9;}
	.st164{fill:url(#SVGID_76_);}
	.st165{fill:#EB202D;}
	.st166{fill:#F9A624;}
	.st167{fill:none;stroke:#CDCDCD;stroke-width:0.75;stroke-miterlimit:10;}
	.st168{opacity:0.2;fill:#6470B4;}
	.st169{fill:#FFFFFF;stroke:#F4802A;stroke-width:1.3007;stroke-miterlimit:10;}
	.st170{opacity:0.95;}
	.st171{opacity:0.8;}
	.st172{clip-path:url(#SVGID_77_);}
	.st173{fill:url(#SVGID_78_);}
	.st174{fill:#C6A293;}
	.st175{fill:#383E98;}
	.st176{fill:#9B7D42;}
	.st177{fill:#6470B4;}
	.st178{fill:#C39570;}
	.st179{fill:#1D7EC1;}
	.st180{fill:#2D3288;}
	.st181{fill:#191919;}
	.st182{fill:#966757;}
	.st183{fill:#828DC5;}
	.st184{fill:#A2715C;}
	.st185{opacity:0.1;fill:#383E98;}
	.st186{fill:#F4802A;}
	.st187{fill:#F05D44;}
	.st188{fill:#B48868;}
	.st189{fill:#F1F0EE;}
	.st190{fill:#3596D2;}
	.st191{fill:#D1AC99;}
	.st192{opacity:0.4;fill:#1D7EC1;}
	.st193{fill:#1D1816;}
	.st194{fill:url(#SVGID_79_);}
</style>
<g id="background">
</g>
<g id="Layer_1">
	<g>
		<g>
			<g>
				<path class="st174" d="M143.5,247.1c-1,6.3-4.2,18.9-1.3,23.6c2.8,4.7,5.5,14.1,10.1,13.2c4.6-0.9,9.5-6.2,9.3-7.7
					c-0.2-1.5-5.4-1-7.1-2.6c-1.7-1.6-4.7-8-3.2-8.1c1.5,0,1.9,6.9,5.7,4.7s2.5-11.9,0.4-14.8c-2.1-2.9,1.6-12.1,1.6-12.1l-13.6-4.3
					C145.4,239,143.9,244.5,143.5,247.1z"/>
				<path class="st175" d="M171.9,240.4c0,0-7.2,96.2-8.1,106.9c-0.9,10.6-2.4,104.1-2.4,104.1s19.4-3.3,25.7,2.7
					c6.3,6,3.6-45.5,6.6-54.2c3-8.7,14.9-76.1,18.2-83.8c3.3-7.8,4.5-22.5,4.5-22.5s1.5-6,1.9,3c0.5,9,0.4,65,0,79.6
					c-0.4,14.7,2.6,47.6,0.3,59.4c-2.3,11.8-3.8,23.7-3.8,23.7s17.6-3.7,25.7,0c8.1,3.7,7.8-35.5,9-45.4c1.2-9.9,4.2-57.5,6.9-71
					c2.7-13.5,8.7-62.9,4.2-90.1L171.9,240.4z"/>
				<path class="st176" d="M344.1,30.6c-4.2,6.3-5.2,14.1-5.2,21.7c0.1,11.3,2.6,22.5,7.1,32.7c1.9,4.3,4.4,8.7,8.4,11.2
					c1.7,1.1,4.4,1.7,5.6,0.1c1.1-1.4,0.4-3.4-0.2-5.1c-5.9-15.2-5.4-32.8,1.4-47.6c1.7-3.7,3.8-7.3,4.5-11.2
					C369.2,15.4,349.8,22,344.1,30.6z"/>
				<path class="st178" d="M310.7,213.1c-3.1,7.6-11.2,44.9-14.4,48.5c-3.1,3.6-4.4,6.2-4.2,9.9c0.2,3.7-0.8,10,0.9,11.6
					c1.7,1.6,7.2,5,9.4,3.5c2.2-1.5,10-5.5,8.2-7.5s-2.6-1.6-2.7-3c-0.1-1.5-2.2-1.5-0.4-4.8c1.8-3.4,4.1-6.8,3.4-12.7
					c-0.7-5.8,11-33.6,11-33.6L310.7,213.1z"/>
				<path class="st179" d="M319.7,256.3c-1.8,15,13.2,67.7,14.1,79.3c0.9,11.7-0.3,50,3.3,68.9c3.6,18.9,14.4,48.9,14.4,48.9
					s15,1.1,18.9-3.1c3.9-4.2-3.6-71.7-6-78.2c-2.4-6.5-0.3-22.7,1.5-45.8c1.8-23.1-0.9-50.9,2.1-53s1.7,28.7,4.1,42.2
					s3.7,46.7,7.3,57.8c3.6,11.1,4.8,85.5,3.6,89.7c-1.2,4.3,16.8,3.7,16.8,3.7s14.7-63.5,12.9-82.9s-6-28.4-5.1-39.8
					s10.5-34.4,7.5-74.9s-10.5-41.3-10.5-41.3L319.7,256.3z"/>
				<path class="st180" d="M121.2,243.6c3.2,21.1-6.2,77.3-6,89.4s7.1,33.7,2.5,59.7c-4.6,26.1-8,49.9-8,49.9s-7.4-9.5-17.7-2.7
					c0,0-5.4-50.7-3.1-62.8c2.2-12.1-7.6-92.7-9.4-96s-1.9,21.2,2.2,44.1c1.8,9.9,2.4,28.3,0.6,40.6c-1.4,9.6,14.7,73.7,7.5,84.9
					c-7.2,11.2-12.8,2.2-14-3.6c-1.3-5.8-19.7-57.9-19.2-71.4c0.5-13.5-20.9-80.9-23.3-93c-2.5-12.1,2.7-48.5,2.7-48.5l49.1-4.2
					L121.2,243.6z"/>
				<path class="st181" d="M96.2,53.6c2.8,5,3.3,11,3.6,16.7c0.2,3.9,0.5,7.8,0.7,11.7c0.1,1.8,0.2,3.9-0.9,5.4
					c-1.9,2.6-5.9,2.1-8.8,3.5c-3.2,1.5-4.8,5.3-4.7,8.8c0,3.4,1.3,6.9,3.8,9.4c2.4,2.5,5.9,3.9,9.3,3.6c0.7,0,1.5-0.3,1.7-0.9
					c0.3-0.8-0.6-1.5-1.4-1.7c-0.8-0.2-1.7-0.1-2.5-0.6c-1.4-0.9-1.1-2.9-0.6-4.5s0.8-3.6-0.6-4.5c1.3-1.2,2.3-3.2,3.8-4
					c0.9-0.6,2.1-0.5,3.1-1c2.5-1.3,3.8-4.4,4.2-7c0.4-3.6-0.3-7.3,0.5-10.8c0.7-3.1,2.6-6.1,2.3-9.3c-0.2-3.8-3.3-6.9-3.8-10.7
					c-0.2-1.8,0.2-3.6,0.2-5.4c0.1-1.8-0.3-3.8-1.6-4.9c-2.2-2-6.2-1-8.1-3.3c-0.7-0.9-0.9-2-1.3-3.1c-0.9-2.4-3.2-4.2-5.7-4.6
					c-2.6-0.5-7.9,0.9-6.5,4.3c0.8,2,3.6,3.4,5.2,4.6C91.3,47.5,94.3,50.2,96.2,53.6z"/>
				<path class="st182" d="M68.4,84.3c0,0,0.3,21.9-5.1,24.3s-13.8,4.8-13.8,4.8s10.8,12.3,31.1,7.5c20.4-4.8,15.6-9,15.6-9
					s-7.5-3-7.8-10.8s-0.3-11.7-0.3-11.7L68.4,84.3z"/>
				<path class="st183" d="M49.5,113.3c0,0,8.3,8.7,23.6,8.6s23.1-10.1,23.1-10.1s21-0.7,24.6,6.2s8.3,52.8,7.4,60.6
					c-0.9,7.9-9,29-16.6,28.3s-7.9-3.6-7.9-3.6s24.7,43.3,21.8,46.3c-2.9,2.9-47.6-14.4-93-24.9c0,0,4.3-54.8,2.5-62.2
					c0,0-7.2,39.3-7,41.5c0.2,2.2,7,27.4,5.4,29.9c0,0-15.6,19.1-12.4,8.8c0.5-1.7-13.9-13.5-11.7-44.7s5.7-67.7,17.5-76.1
					C36.1,115.4,49.5,113.3,49.5,113.3z"/>
				<path class="st184" d="M71.1,42c15.2-4.5,27.4,5.7,28.5,12.2c1.2,7.4,3.4,11.6,6.6,14.9c1.9,2.1-2.7,4.6-2.7,4.6
					s5,15.3-1.5,20.1c-5,3.7-29.9,5.1-38.3-12.3S54.9,46.8,71.1,42z"/>
				<path class="st183" d="M106.6,201.9c1-16.5,7.9-29.6,7.9-29.6s4.3,7.8,13.8,3.9c0,0-2.4,18.3-7.8,25.8c-5.4,7.5-8.7,5.6-12,4.5
					C106.6,205.9,106.6,201.9,106.6,201.9z"/>
				<path class="st184" d="M115.2,175.7c1.6-3.9,0.9-11,2.3-13s3-2,2.5-3.1c-0.4-1.1-3.3-3.3-2.4-4.7c0.9-1.5-1.7-2.8-0.2-5.7
					c1.5-2.9,3.7-3.5,5.8-2.9c2.1,0.6,1.2-1.4,3.9-1.2c2.7,0.1,10.1,4.2,9,6.6c-1.1,2.5,2.5,3.6,1.2,6.5s-8,6.9-10,8
					c-2.4,1.3-0.4,12.8-0.4,12.8L115.2,175.7z"/>
				<path class="st182" d="M118.7,157.8c0,0,2.6,2,5.4,2.8c2.8,0.8-6.4,1.8-6.4,1.8s2.1-1.7,2.3-2.3
					C120.4,159.5,118.7,157.8,118.7,157.8z"/>
				<polygon class="st166" points="20.8,281 18.1,226.8 66.3,209.4 70.8,261.5 				"/>
				<path class="st184" d="M19.6,234.9c0,0,7.2,24.7,9,25.9c1.8,1.2,1.5,18,7.2,18.6c5.7,0.6,19.9-1.2,19-4
					c-0.9-2.8-5.4-0.4-7.6-4.3s-1.8-7.2-0.9-6.7c0.9,0.4,6.5,5.2,8.6,4.6c2.1-0.6,2.6-1.5,0-4.3c-2.6-2.8-17.6-11.1-19.2-13.3
					c-1.6-2.2-5.2-19.1-5.2-19.1S23.8,231,19.6,234.9z"/>
				<path class="st183" d="M11.9,224.3c3,7.7,9.2,23.1,9.8,21.2c0.6-1.8,8.1-10.2,11.5-10.5c0,0-0.5-10.7-2.4-18.6
					C29,208.5,11.9,224.3,11.9,224.3z"/>
				<path class="st185" d="M103.7,203.4c-1-5.4,4.9-36.4,4.3-41.4c-0.7-5-1.4-27.9-2.4-26.5s-7.1,64.1-5,66.3
					C102.6,204,104.2,205.9,103.7,203.4z"/>
				<polygon class="st186" points="70.8,261.5 68.8,217.1 67.1,218.8 				"/>
				<polygon class="st187" points="69,221.5 71.7,219.3 70.8,261.5 				"/>
				<path class="st181" d="M78.8,51.3c-0.6,1.7-0.4,3.6-0.4,5.5c-0.2,7.7-7,11.3-8.5,18.5c-1.2,5.7,2.5,11.7-0.6,17
					c-0.9,1.6-2.1,3.1-2.5,4.8c-0.7,3,0.9,6.2,0.1,9.2c-0.5,2.1-2.1,3.7-3.8,5.1c-1.7,1.4-3.5,2.6-4.8,4.3c-1.5,2-0.8,3.5-1.3,5.5
					c-0.5,1.8-2.3,2-3.5,3.5c-2.2,2.8,0.5,7.7-2,10.3c-1.4,1.4-3.8,1.3-5.5,0.2c-1.7-1-2.8-2.8-3.8-4.4c-1.1-1.7-2.2-3.4-3.9-4.4
					c-2.6-1.6-6.5-1.5-7.7-4.3c-0.6-1.4-0.2-3-0.4-4.5c-0.5-5.1-7.3-8.4-6.7-13.5c0.5-4.4,6.1-6.4,7.5-10.6
					c1.5-4.4-2.3-9.4-0.6-13.8c1.5-3.8,6.4-5.2,8-8.9c1.1-2.6,0.3-5.7,0.3-8.6c0.1-3.8,2-7.3,4.8-9.7c1.3-1.1,1.9-1.4,2.3-3
					c0.5-1.7,0.2-3.5,1.1-5.2c1.1-2,3.3-3.3,5.6-3.7c2.7-0.5,5.1-0.4,7.7-1.1c2.7-0.8,5.5-1.1,8.2-1.9c2.1-0.6,4.2-1.6,6.4-2.1
					c8.8-2.3,13.8,5.5,7,11.9C80.6,48.5,79.4,49.7,78.8,51.3z"/>
				<path class="st188" d="M362.5,78.1c1.8,6.6,2.4,17.1-1.5,19.2c-3.9,2.1-9.6,2.6-9.6,2.6s8.4,35.1,23.1,36
					c14.7,0.9,29.9-38,29.9-38s-17.1,1.5-20.7-23.7L362.5,78.1z"/>
				<path class="st180" d="M351.4,99.9c-14.7,3.4-22.5,4.9-24.3,10.8s-3,66.2-7.8,78.8c-4.8,12.6-15.9,26.1-15.9,26.1
					s18.3,8.1,19.2,12.6c0.9,4.5-11.7,36.8-6.6,37.1s23.1-16,53.3-11.6c30.2,4.4,43.4,19.4,48.2,9.5c4.8-9.9-4.8-62.9-4.8-62.9
					s12,11.4,19.5-2.7s9.6-15.9,7.5-20.1s-7.5-20-7.8-30.2c-0.3-10.2,2.4-33-8.4-40.5c-10.8-7.4-19.2-8.9-19.2-8.9
					s-11.1,24-26.5,23.7S351.4,99.9,351.4,99.9z"/>
				<path class="st165" d="M392.1,173.5c0,0-2.2-27.1-2.1-28.6s4.1-4.6,5.5-5.3c1.3-0.8,11.3-0.5,13.5-0.2s5.7,6.6,5.7,6.6l-3,28.3
					C411.7,174.3,399.2,176.2,392.1,173.5z"/>
				<path class="st189" d="M389.3,145.8c2.1,0.6,21.4,2.8,26.5,0.5l-1.2-4.8H412l-1.6-3.9l-15.4-0.6l-1.5,3.7h-2.7L389.3,145.8z"/>
				<path class="st178" d="M422.8,196.4c-6.4-6.5-10.3-15.7-12.3-17.4c-2-1.7-7.9-4.2-7.9-4.2s6.1-0.2,6.5,0
					c0.4,0.2,2.9-0.2,2.2-1.7s-8.5-4.3-7.7-5.5c0.7-1.3-4.4-3.6-2.3-6.8c0,0-3-5.2,2.5-6c0,0-0.4-2.2,2.8-2.1s8.5,1.3,9.5,2.4
					c1,1.1-0.3,10.8,1,12.7c1.3,1.9,5.6,11.4,5.6,11.4s1.1,4.9,0.7,10.2C423.1,194.6,422.8,196.4,422.8,196.4z"/>
				<path class="st178" d="M369.7,22.1c-14.9,2.3-21.9,13.6-23.1,22.5c-1.2,8.9-0.3,13.7-2.1,16.7c-1.8,3,0.3,5.1,2.7,5.4
					c2.4,0.3-6.3,22.5,18.9,17.7c25.2-4.8,32.3-24.4,30.8-39.7C395.4,29.3,383.2,20,369.7,22.1z"/>
				<path class="st176" d="M366.9,44.1c3.4,1.4,7,2.7,9.8,5.1c5.9,5.1,7.1,13.9,6.2,21.6s-3.5,15.3-3.5,23.2c0,2.1,0.6,4.6,2.6,5.1
					c1.9,0.5,3.5-1.2,4.7-2.7c6.1-7.9,11.4-16.6,14.5-26.1s3.6-20.1,0.2-29.5c-3.4-9.4-11-17.5-20.6-20.2c-8.1-2.3-18.2-0.3-24.1,6
					C349.5,34.1,360.5,41.5,366.9,44.1z"/>
				<path class="st174" d="M215.6,64.8c0,0-0.7,9.7-6.3,10.6c-5.6,0.9-9.4,0-9.4,0s9.9,29.4,26.3,27.7s25.6-21.2,25.6-21.2
					s-11.7,0.7-9-11L215.6,64.8z"/>
				<path class="st190" d="M202.5,75.4c-12,2.2-27.2,6.7-31.6,13.7s-14.7,64.4-17.4,73.3s-11.6,80.4-12.5,82.8
					c-0.8,2.5,22.4,6.5,22.8,4.7c0.4-1.8,7.5-32.9,7.5-32.9s-3.7,41.2-2.3,36.4s16.8-15.3,32.2-6.3c15.4,9,58.1,13.5,60.8,11.2
					s4.6-39.1,4.6-39.1s14.1-6,16.2-8.1c2.1-2.1,13.1-33.3,12.2-43.1c-0.5-6-7.9-58.1-19.9-72.6c-12-14.5-26.6-13.6-26.6-13.6
					s-0.6,14.1-24.9,10.8S202.5,75.4,202.5,75.4z"/>
				<path class="st191" d="M232.7,78.3c-18.1,0-27.3-20.7-26.4-38.9s6.4-30.6,24.5-30.9s24.5,12.7,23.8,27.6S252.1,78.3,232.7,78.3z
					"/>
				<path class="st174" d="M268.7,198.3c-2.3,3.9-9.8,12.9-14.9,14.5c-5.1,1.6-13.7,0.1-13.6,3c0.1,2.9,3.3,4.8,3.3,4.8
					s-8.9,6.5-11.2,11.2s0.9,8,0.5,10.8c-0.4,2.9,6.8,0,12,0.7c5.2,0.6,7-1.9,7.7-4s12.5-18,15.3-20.1c2.8-2.2,14.4-11.6,14.4-11.6
					L268.7,198.3z"/>
				<path class="st192" d="M272,129c-2.1,4-10,13.3-11,18.3c-1,4.9,5,42.3,2.7,47.1s-4.4,8.3-4.4,8.3s10.8-12.5,9.8-20.5
					s-0.2-36.3,0.6-41.4C270.5,135.5,272,129,272,129z"/>
				<path class="st192" d="M178.5,134l-4.7,85.4c0,0,11.2-54.4,8.9-70.1C180.3,133.5,178.5,134,178.5,134z"/>
				<path class="st190" d="M267.7,196.4l-11.5,11c0,0,15.9,16.7,15.9,20.3c0,3.6,16.6-31.4,16.6-31.4H267.7z"/>
				<path class="st193" d="M209,34.5c0.1-3.6,0.1-7.5,2.2-10.4c2.2-3,6-4.2,9.6-4.8c7.4-1.3,15.1-1,22.4,1c2.7,0.7,5.5,1.8,7.4,3.9
					c2.5,2.8,2.8,7,2.7,10.7c-0.1,2.3-0.3,4.5-0.6,6.8c-0.2,1.5-0.8,3.8-0.5,5.2c0.2,0.9,1.1,1.6,1.9,1.3c0.5-0.2,0.8-0.7,1-1.2
					c2-4.3,3.5-10,2.2-14.7c-1.4-5.3-1.1-11.4-1.7-16.9c-0.1-1-0.2-2-0.8-2.9c-0.5-0.8-1.6-1.4-2.5-1.1c-0.5-2.7-2.6-5-5.2-5.7
					c-2-0.5-4.2-0.2-6.2-0.7c-1.8-0.4-3.4-1.6-5.1-2.3c-2.8-1.1-5.9-1.2-8.7-0.1c-2.2,0.8-4.1,2.3-6.4,2.9c-1.8,0.5-3.8,0.3-5.4,1.3
					c-2,1.2-2.7,3.8-3.9,5.8c-1.3,2.1-3.2,3.8-4.4,5.9c-1.6,2.8-1.8,6.2-2,9.4c-0.2,2.8-0.3,5.6-0.5,8.4c-0.1,1.2-1,5.7,0.1,6.6
					c1.1,0.8,2.8-0.9,3.3-1.7C209.1,39.4,208.9,36.7,209,34.5z"/>
			</g>
		</g>
	</g>
</g>
</svg>
