<?xml version="1.0" encoding="utf-8"?>
<!-- Generator: Adobe Illustrator 23.0.3, SVG Export Plug-In . SVG Version: 6.00 Build 0)  -->
<svg version="1.1" xmlns="http://www.w3.org/2000/svg" xmlns:xlink="http://www.w3.org/1999/xlink" x="0px" y="0px" width="341.4px"
	 height="628px" viewBox="0 0 341.4 628" style="enable-background:new 0 0 341.4 628;" xml:space="preserve">
<g id="background">
</g>
<g id="Layer_1">
	<path style="fill:#CDCDCD;" d="M297.7,626.3c-20.7,3.4-24.8-5.5-15.2-5.8c9.6-0.3,60.8-1.1,54.8,2.1
		C328.8,627.1,297.7,626.3,297.7,626.3z"/>
	<path style="fill:#CDCDCD;" d="M239.6,624.3c-20.7,3.4-24.8-5.5-15.2-5.8c9.6-0.3,60.8-1.1,54.8,2.1
		C270.6,625.1,239.6,624.3,239.6,624.3z"/>
	<path style="fill:#CDCDCD;" d="M17,619.8c-1.1,3.2-2.4,8,7.5,11.8c9.9,3.8,76.6,11.9,71.8-4.4c0,0,39.9,1.8,42.3-7.5
		s-15-9.7-23.3-9.7S20.5,609,17,619.8z"/>
	<g>
		<path style="fill:#383E98;" d="M268.2,574.7c0,0,1.1,38.6,2.8,40.8l-7.1,1.2l-1-6.3c0,0-7.7,7.1-12.8,8.6
			c-3.7,1.2-19.9,2.1-28.2,2.6c-2.9,0.2-5.4-2.1-5.6-5c-0.3-4.1,0-9.6,2.9-11.7c4.9-3.7,19-5.9,20.1-10.3c1.1-4.4-1.7-48.3-1.7-48.3
			l29.2-1.9L268.2,574.7z"/>
		<path style="fill:#383E98;" d="M323.8,575.8c0,0,1.1,39.9,2.9,42.2l-7.3,1.2l-1-6.5c0,0-8,7.3-13.3,8.9
			c-3.9,1.2-20.6,2.2-29.1,2.6c-3,0.2-5.6-2.2-5.8-5.2c-0.3-4.3,0-9.9,3-12.1c5-3.8,19.6-6.1,20.7-10.7c1.1-4.6-1.8-49.9-1.8-49.9
			l30.2-2L323.8,575.8z"/>
		<path style="fill:#92D8F3;" d="M226,280c0,17.6-0.5,37.9-3.6,74.4c-3,35.8,3.4,100.7,6.4,112.5c4.4,17,10.3,113.3,10.3,113.3
			s25.9,3.7,28-3.5c3.5-11.8,2.7-83.8-2.9-106.8c-2.8-11.5,3.7-46.6,5.6-74c1.9-27.1-1.1-56.1-1.1-56.1s-6.8-1.3-2.1-8.4
			c4.7-7,57.4-11.9,57.4-11.9l-7.2-37.1L226,280z"/>
		<path style="fill:#383E98;" d="M64.9,593.2L63,610.6c0,0,46.5,15.8,67.1,6.1c0,0,0.4-13.1-10.1-16.2c-10.5-3.1-25.4-9.9-25.4-9.9
			L64.9,593.2z"/>
		<path style="fill:#383E98;" d="M17.7,598.8l-2.2,19.9c0,0,46.5,15.8,67.1,6.1c0,0,0.4-13.1-10.1-16.2c-10.5-3.1-25.4-9.9-25.4-9.9
			H17.7z"/>
		<path style="fill:#9B6656;" d="M98.3,285.5c0,0,29.1,46.1,27.1,50.9c-2,4.8-4.9,20.8-9.3,19.8c-4.4-1.1-10.8-5.7-10.8-5.7
			l3.2-17.9l-5.9-6.9c0,0-12.4-7.5-11.3-13.9s0-20.8,0-20.8L98.3,285.5z"/>
		<path style="fill:#A3DCF7;" d="M316.9,282.4c0,0,10.1,27.5,7.2,64.2c-1.7,21.6-8.7,36.6-8.7,87.8c0,28.2,8.7,137.6,8.7,137.6
			s-11.4,6.2-30.7,3c0,0-8.7-94.4-12-101c-3.3-6.7-6.6-37.4-7.4-44.8s-6.7-77.5-9.4-83.8c-7.1-16-16.8-46-14.5-48.7
			C252.5,293.9,316.9,282.4,316.9,282.4z"/>
		<path style="fill:#1D7EC1;" d="M94.3,184.1c3,14,8.5,99.4,11.8,103.7S91.2,299,83.9,297.9C76.7,296.9,94.3,184.1,94.3,184.1z"/>
		<path style="fill:#2B2D73;" d="M93.8,301.1c0,0,6.9,64.6,6.9,72.1c0,7.5,12.8,58.8,13.9,65.7s5.8,37.4,3.2,64.1
			c-2.6,26.7-11.6,94.6-11.6,94.6s-29.9,4.9-42.2-5.8c0,0,14.9-96.8,14.9-105.8c0-9.1-10.7-47.6-10.7-47.6l5.3-135.7L93.8,301.1z"/>
		<path style="fill:#2D3288;" d="M7.7,291c-2.7,15.5-9.7,35.2-7.2,59.5c2.4,24.4,24.3,113,24.3,113l-9.1,135.2
			c0,0,35.8,6.4,44.3,3.7c8.5-2.7,12.8-137.8,12.3-143.2c-0.5-5.3,0-83,0-83l8.5-73.3L7.7,291z"/>
		<path style="fill:#3596D2;" d="M257.5,289.6L257.5,289.6c-1.3,0-2.4-1.1-2.4-2.4l0,0c0-1.3,1.1-2.4,2.4-2.4l0,0
			c1.3,0,2.4,1.1,2.4,2.4l0,0C259.9,288.5,258.8,289.6,257.5,289.6z"/>
		<path style="fill:#9B6656;" d="M57.4,74.6c-4.3,10.7-12.1,17.6-12.1,17.6l32.4,40.6c0,0,10.5-38.5,9.5-43.3S57.4,74.6,57.4,74.6z"
			/>
		<path style="fill:#3596D2;" d="M45.3,92.2c0.6-8.8-16.2,5.2-27.4,24.2s-10.2,55.8-9.1,97.8S4,300.6,4,300.6s82.3,5.9,96.7,0
			c0,0-5.3-108.4-2.7-121.7s-10.2-56.4-12.8-62.4c-2.7-6.1-2.7,0-2.7,0l-5.9,8.4L45.3,92.2z"/>
		<path style="fill:#A46D59;" d="M51,11.8c17.8-16,53.3-10.7,61.6,8s3.9,29,8,33.1c4.2,4.1,8.8,11,4.2,13.5
			c-4.6,2.5,1.5,21.7-8.2,27.7s-51.3,8.3-66.3-18S33.2,27.9,51,11.8z"/>
		<path style="fill:#A46D59;" d="M30.3,302.1c6.3,4.3,34.6,51.4,34.6,51.4s-7.9,24-1.3,28.9c8,5.9,1.9,12.8,4.5,15.5
			s8.3,2.7,15.5-1.6c7.1-4.3,10.9-16,9.3-20.3s-1-12.8-5.7-18.2c-4.6-5.3,0.2-7.5-5.7-14.4c-5.9-6.9-29.1-52.4-29.1-52.4L30.3,302.1
			z"/>
		<path style="fill:#9B6656;" d="M58.8,52.5c-8.4,0-9.7,10.9-5.3,14.6c4.4,3.6,8.4,1.2,8.4,1.2"/>
		<path style="fill:#1E1614;" d="M44.2,59.6c-1-5.7,3-11.1,8.7-11.7c2.1-0.2,4,0.4,5.4,2.3c4.4,6.3,3.9,10.5,3.9,10.5l8.2-2.7
			l-5.7-17.4c0,0,6.3-17.4,43.5-27.3c0,0-25.6-28-62.6-2.6c-21.5,14.8-8.3,42.4,0,56.6L44.2,59.6z"/>
		<path style="fill:#1D7EC1;" d="M30.2,118.5c-14-1.7-28.8,5.3-26.7,33.7s-5.4,93.7-2.1,103.5s24.6,50.4,28.9,52
			s29.9-11.8,29.9-11.8s-21.7-40.6-29.8-49.2c0,0,17.5-62,15.9-82.8S52.6,121.1,30.2,118.5z"/>
		<path style="fill:#403635;" d="M236.6,39.1c-3.2,6-4.5,13.1-4.9,20c-0.8,16.2,2.9,32.3,5.6,48.3c2.7,16,4.5,32.7-0.2,48.3
			c11.7-2.2,20.4-13,23.2-24.6c2.8-11.6,0.5-23.8-2.9-35.2c-3.5-11.4-8.2-22.4-10.6-34.1c-1.3-6.1-1.1-12-1-18.2
			c0.1-5.7,1.7-8.6,4.6-13.6c0.4-0.7,0.8-1.7,0.3-2.4c-0.6-0.6-1.6-0.3-2.4,0C242.9,30.4,239.2,34.4,236.6,39.1z"/>
		<path style="fill:#E4B2A0;" d="M214.7,217.6c-11.3-6.1-25-19.2-25-19.2s-4.7-12.3-11-18.2c-6.3-5.9-4-12.9-7.9-11
			c-3.9,2-2.7,8.2-2.7,8.2s-11.4-11.7-13.3-10.2c-2,1.6,1.6,10.2,1.6,10.2s-6.3,2,0.8,8.6c0,0-9,2.9,2.3,11.5c0,0-5.6,4,11.3,11.9
			c16.9,8,30.7,30.3,34,29.9C208.1,238.9,214.7,217.6,214.7,217.6z"/>
		<path style="fill:#F0BDA8;" d="M267.5,112.6c-5.8,3-30.7,24.9-29.8,40.9s10.3,26.6,10.3,26.6s46.2-29.4,41.9-45.8
			c-4.3-16.4-1.2-21.7-1.2-21.7H267.5z"/>
		<path style="fill:#E4B2A0;" d="M259.8,104.6l4.3,24.3c0,0,16.8-8.6,17.2-14.1c0.4-5.5,0-18.4,0-18.4L259.8,104.6z"/>
		<path style="fill:#F0BDA8;" d="M274.2,25.5c-21.7-1.9-35.6,11.4-36.4,35.6c-0.8,24.3,4.7,47.4,13.3,49c8.6,1.6,30.9-3.1,36-20.4
			C292.3,72.5,319.3,29.4,274.2,25.5z"/>
		<path style="fill:#1D7EC1;" d="M221.8,173.5c0,0-8.2,36.8-10.6,36.8s-6.7-3.5-6.7-3.5s12.5,18,2.3,29.8
			c-10.2,11.7,2.7,11.7,2.7,11.7l17.6-7L221.8,173.5z"/>
		<path style="fill:#3596D2;" d="M261.9,116.7c-8.4,4.4-26.7,27-17,45.1c9.7,18.1,39.9-8.6,42.3-22.3c1.7-9.9-3.1-21.5,1.6-26.8
			c0,0,36.8,0.2,44.3,25.7s2.4,111.2-1,115l-17.4,3.4l6.2,45.1c0.3,1.7-1.1,3.3-2.8,3.3c0,0-15.4,7.2-44.6,8.4
			c-29.2,1.2-42.9-4.2-42.9-4.2c-3,0-5.4-2.3-5.5-5.3c-0.6-17.5-3.5-85.5-4.8-96.4c-1.6-12.9,0-38.8,0-49.3s2.9-30.5,17.5-36.4
			C252.3,115.9,261.9,116.7,261.9,116.7z"/>
		<polygon style="fill:#1D7EC1;" points="314.6,256.7 281.5,260.1 315.4,265.7 		"/>
		<path style="fill:#1D7EC1;" d="M306.7,161.8l5.9,66.4l-30,6.8C282.7,235,307.5,210.7,306.7,161.8z"/>
		<path style="fill:#1D7EC1;" d="M225.3,148.4c5.7-7.8-8.2,17-3.9,43.9c1.7,10.9,8.3,17.1,11.4,47c0.6,6-7,52.9-8.3,51.7
			S213.5,164.5,225.3,148.4z"/>
		<path style="fill:#3596D2;" d="M204.5,206.8c-1.7-3.5,9.7,2.3,10.6,13.3c0.8,11-6.2,30.2-12.1,28.2
			C197.1,246.4,216.7,231.5,204.5,206.8z"/>
		<path style="fill:#1D7EC1;" d="M273.8,235c9.8,0,0,25.7,0,25.7S265,235,273.8,235z"/>
		<path style="fill:#403635;" d="M269.4,44c3.2,3.4,4.1,8.4,4.3,13.1c0.1,4.7-0.4,9.5,0.5,14c1,4.6,3.9,9.2,8.4,10.4
			c-2.5,2.4-3.3,6.1-2.9,9.6c0.4,3.4,0.7,13.3,1.8,16.6c2.7,8.6,0.7,13.7,0,22.7c-0.7,8.6,1,15,4.1,23.1
			c3.4,8.9,12.6,14.4,21.8,16.7c9.2,2.4,18.9,2.4,28.3,4.1c-2.1-3.2-4.2-6.4-6.3-9.6c3.8,1.4,8.1,1.5,12,0.3
			c-3.8-3.5-6.9-7.5-10.3-11.2c-2-2.1-4.1-3.7-5.7-6.1c-0.5-0.7-2.8-6-3.1-6.1c3.4,0.6,7.1-0.5,9.6-2.9c-5.7-4.3-10-10.3-12.2-17.1
			c5.4,2.3,11.4,3,17.2,1.9c-6.1-6-17.8-19.4-17.1-28.6c1.9-0.4,3.2,0.6,5,1c0.7,0.1,5.2-0.2,5.3,0c-9.8-10.4-11.7-25.8-13.7-40
			c-2-14.2-5.5-29.7-17.1-38.1c-9.1-6.7-25.1-7.9-33.8,0.4c0.3-0.3-5.4-1.8-5.9-1.8c-2.3,0-4.7,0.6-6.6,1.8c-3.8,2.5-6,7.9-4.7,12.3
			C250.5,38.9,264,38.4,269.4,44z"/>
		<path style="fill:#403635;" d="M241.7,49.5c-3.6,5.2-7.1,11-7.2,17.3c0.3-13.1,2.5-33.3,18-37.1C249.2,37.1,246.4,43,241.7,49.5z"
			/>
		<path style="fill:#F0BDA8;" d="M288.5,239.8c-10.5-1.4-24.4-1.8-33.7-3.7c-9.3-1.9-21.8-13.4-23.1-15.5s-4.6,4.7,0.2,8.2
			s4.4,5.4,3.5,5.8c-0.9,0.4-16.8,1.6-18,3.3c-1.3,1.7-3.1,2.8,1.5,4.1s11.3-2,11.3-2c-0.3,1.6-17.7,1.7-19.4,4s0.6,4.6,0.6,4.6
			s-6,1-3.7,3.6c2.3,2.6,5.9,2.1,5.9,2.1s-3.6,4.3,6,4.4c9.6,0.1,27.4-1.3,33.1-2.8s35.5,0.7,35.5,0.7L288.5,239.8z"/>
		<path style="fill:#3596D2;" d="M276.9,236.4c1.5,3.8-2.3,22.1-2.3,22.1l21.3-1.8v-18.8L276.9,236.4z"/>
	</g>
</g>
</svg>
