<?xml version="1.0" encoding="utf-8"?>
<!-- Generator: Adobe Illustrator 23.0.3, SVG Export Plug-In . SVG Version: 6.00 Build 0)  -->
<svg version="1.1" xmlns="http://www.w3.org/2000/svg" xmlns:xlink="http://www.w3.org/1999/xlink" x="0px" y="0px" width="276.1px"
	 height="368.8px" viewBox="0 0 276.1 368.8" style="enable-background:new 0 0 276.1 368.8;" xml:space="preserve">
<g id="background">
</g>
<g id="Layer_1">
	<g>
		<ellipse style="fill:#F1F0EE;" cx="142.1" cy="333.5" rx="98.5" ry="35.3"/>
		<g>
			<polygon style="fill:#40C2D9;" points="222.5,214.7 235.7,255.5 177.4,277.2 152.4,261.7 140.5,225.5 			"/>
			<path style="fill:#2C180E;" d="M106.3,149.4c1.3,16,6,31.8,5.6,47.9c-0.2,7-1.3,14.2,0.1,21.1c0.7,3.2,1.9,6.4,4.2,8.8
				s5.5,4,8.8,3.7c4.6-0.4,8.1-4.4,9.6-8.8s1.2-9,1.1-13.6c-0.7-30.7,4.8-62.5,21.8-88c3.1-4.7,6.7-9.8,5.8-15.3
				c-0.7-4.1-3.9-7.3-7-10c-12.7-11.1-27.4-19.9-43.2-25.8c-6-2.2-4.9,0.4-4.5,5.7c0.4,4.7,0.4,9.4,0.3,14
				c-0.2,9.4-1.2,18.8-1.9,28.2C106.1,127.8,105.5,138.6,106.3,149.4z"/>
			<path style="fill:#A57357;" d="M54.4,202c7.6-7.1,64.3,18.2,64.3,18.2s23.2,13.2,3.1,18.5c-16.1,4.2-64.8-18.5-64.6-24
				C57.3,209.2,54.4,202,54.4,202z"/>
			<path style="fill:#F4802A;" d="M140.5,301.5c-1.7-4.8-79.6-13.2-83.8,0s-4.2,25.6,11.1,27.7c15.2,2.1,60.9-1.7,65.9-7.3
				C138.8,316.4,140.5,301.5,140.5,301.5z"/>
			<path style="fill:#B4805D;" d="M149.3,300.5c-12.3,1-40,0-40,0s-13.8,21.1-4.5,21.1s44,4.2,57.5-3.8L149.3,300.5z"/>
			<path style="fill:none;stroke:#FFFFFF;stroke-width:2.3905;stroke-miterlimit:10;" d="M86.1,303.7c0,0-2.5,8.2,0,17.9"/>
			<path style="fill:none;stroke:#FFFFFF;stroke-width:2.3905;stroke-miterlimit:10;" d="M92.8,303.7c0,0-2.5,8.2,0,17.9"/>
			<path style="fill:#BD875F;" d="M105.2,311.2l30.5,21c0,0,3.8-17.2,9.5-21L119,291.3L105.2,311.2z"/>
			<path style="fill:#3596D2;" d="M189.3,268.6c-19.7-3.8-154-66.8-170-57.1s-23.2,20.9-14.5,37s140.4,52,140.4,52L189.3,268.6z"/>
			<path style="fill:#1D7EC1;" d="M43.5,214c-17.5-5.9-25.5-8.3-40.2,12.8c-8.4,12.1,0.5,22.5,13.6,31.7
				c13.2,9.2,87.9,63.2,87.9,63.2s5.3-22.4,27.1-24.8c0,0-31.9-34.3-48-43.7S43.5,214,43.5,214z"/>
			<path style="fill:#BD875F;" d="M220.2,152.2c0,0-0.3,48.3,7,63.9c7.3,15.6,27,31.7,32.7,21.8s-15.6-104.9-15.6-104.9L220.2,152.2
				z"/>
			<path style="fill:#B4805D;" d="M174.8,71.7l22.8,15.1c0,0-12.5,80-22.8,86.2c-10.4,6.2-27.5-54.5-27.5-54.5l10.4-6.2l-4.7-8.8
				L174.8,71.7z"/>
			<path style="fill:#40C2D9;" d="M191,82.4c14.4,0.7,33.6,2.3,40.9,11.6c7.3,9.3,19.4,41.5,19.4,41.5s-28.1,17.7-31,29.1
				c-2.9,11.4,10.9,58.7,10.9,58.7s-10.9,30.1-40.2,34.8c-29.2,4.7-72.3-37.9-72.3-37.9S98.4,122,147.2,118.4
				c0,0,14.5,48.3,25.2,47.2C183.1,164.6,191,82.4,191,82.4z"/>
			<path style="fill:#BD875F;" d="M129.9,2.9c-26.4,3.2-38.7,44.9-11.7,76.6s35.8,30.1,42.6,27.5s19.7-20.2,15.6-49.3
				S159.5-0.7,129.9,2.9z"/>
			<path style="fill:#CDCDCD;" d="M135.6,332.2c2.8-12.7,4.2-16.1,9.5-21c5.4-4.9,11.6,4.9,11.6,4.9s-10.4,5.9-10.6,16.1
				c-0.2,10.2,3.6,10.5-0.2,10.2S135.6,332.2,135.6,332.2z"/>
			<path style="fill:#F4802A;" d="M172.4,353.4c-7.7-6.6-10.8-26.5-7-37.3l-6.5-2.8c0,0-11.2,5.2-12.7,14.5
				c-1.6,9.3,1.2,17.7,3.1,20.1S172.4,353.4,172.4,353.4z"/>
			<path style="fill:#CDCDCD;" d="M165.4,316.1c0,0-6.4,21.7,7,37.3h10.5c0,0-14.3-18.7-7-33.8L165.4,316.1z"/>
			<path style="fill:#9D9D9D;" d="M182.9,353.4c0,0,10.9-6.4,9-34l-16,0.2c0,0-4.6,7.5-1.2,16.8S182.9,353.4,182.9,353.4z"/>
			<path style="fill:#1D7EC1;" d="M145.2,300.5c6,12.9,18.9,25.3,18.9,25.3l27.9-6.3L145.2,300.5z"/>
			<path style="fill:#432412;" d="M110.4,78.3c1.8-2.4,9.8,7.4,10.4,8.6c2.3,4.7,1.1,11.6,2.4,16.8c2,7.8,2.7,15.7,1.3,23.7
				c-1.7,9.7-6,18.7-8.8,28.1c-4.7,15.7-5.1,32.7-1.2,48.6c0.9,3.6,2,7.3,1.9,11c-0.1,3.7-1.7,7.7-5,9.4c-4.4,2.4-10-0.1-13.3-3.8
				c-3.3-3.7-5.1-8.6-7.7-12.8c-1.3-2.2-4.6-7-7.4-7.3c-3.2-0.3-3,2.1-5.6,3.2c-7,3.1-6.5-3.9-12.3-5.3c-7.5-1.8-5.2,7.5-6.6,11.2
				c-0.9,2.5-3.4,4.8-6.1,4.5c-2.5-0.2-0.6-17.1-0.2-18.8c1.2-5.5-0.5-9.3-1.1-14.8c-1.1-11.3,2.5-23.2,10.2-31.6
				c2.3-2.5,4.9-4.7,6.1-7.9c1.8-4.5,0.2-9.6-1-14.3c-1.5-5.9-2.3-12.1-1.4-18.1c0.9-6,3.5-12,8-16.1c3.3-3,7.4-4.9,10.4-8.2
				c3.5-3.9,5-9.3,5.5-14.5c0.5-5.2,0.1-10.5,0.4-15.8C90,43,94.4,34,100.1,24.6c4.6-7.6,8.6-14.9,16.5-19.9
				c5.5-3.5,12.3,3,16.5,8.1c6.9,8.2,0.3,22.4-3.1,30.9C125,56,118.4,67.7,110.4,78.3z"/>
			<path style="fill:#B4805D;" d="M80.1,219.7c5.7-1.6,22.3-6,22.8-15.2c0.5-9.1-5.7-11-5.7-11l-20.8,14.5L80.1,219.7z"/>
			<path style="fill:#B4805D;" d="M56.3,217.9c-6.6-4.2,1.3-20.8,9.2-21.8c8-1,13.2,7.6,22,12.8c0,0,1.5,9.5-1.7,9.1
				C82.4,217.7,72.7,228.3,56.3,217.9z"/>
			<path style="fill:#432412;" d="M140,21.4c7.5,4.1,15.9,7.4,21.6,13.9c10.6,12,9.4,31.7,21.2,42.5c3.5-15.1-0.3-30.8-4.1-45.8
				c-2.2-8.8-4.7-18.2-11.4-24.4c-5.6-5.1-13.3-7.3-20.9-7.5c-5.4-0.1-22.3-0.1-22,5.9C124.5,12.4,135.2,18.7,140,21.4z"/>
			<path style="fill:#EFCCA7;" d="M83.9,248.5v-3.1c0,0,26.6-12.8,45.9-9.6s15.3,3.6,15.3,3.6s6.7-8.2,16.9-12.3s21.8-7.4,21.8-7.4
				l8,3.6l-42.5,17.6c0,0-5.3,3.2-12.8,2.7L83.9,248.5z"/>
			<polygon style="fill:#F05D44;" points="79.5,248.5 146.1,242.3 191.9,223.3 219.1,235.9 160,258.4 108,267.2 			"/>
			<path style="fill:#EFCCA7;" d="M145.2,239.4c0,0-25.4-12.2-32.2-14.5c-6.7-2.3-13.5-10.1-13.5-10.1s-4.2-0.3-2.6,2.1
				c1.6,2.3,7.5,21.2,7.5,21.2S137.4,235.5,145.2,239.4z"/>
			<path style="fill:#BD875F;" d="M260.8,227.1c3.6,15.2,4,23.2-4,25.2c-15.6,4.1-81,13-87.2,12.5c-6.2-0.5-11.4-2.9-17.1-3.1
				c-5.7-0.3-14.8,0.3-21.3-1.3c-6.5-1.6-30.5-8.4-29.8-10.1c1.4-3.1,11.2-0.6,11.2-0.6s13.8,2.7,14.6,2.7s-2.9-1.5-2.9-6.3
				s1-12,2.6-13.1c1.6-1,12.5-15.1,15.6-13c3.1,2.1-2.6,8.3-3.4,11.7c-0.8,3.3-0.6,12.7,3,16.3c3.6,3.6-0.5-11.8-0.3-14.6
				c0.3-2.9,7.3-5.7,8.9-5.5c1.6,0.2,4.8,2.4,4.8,2.4s-7.4,1.8-7.4,4.2c0,2.3,0.8,11.8,4.1,11.9c3.3,0,5.1-1.2,4.3-2.3
				c-0.8-1-7.2-7.6-5.1-10c2.1-2.3,7.4,1.7,11.6,4.3c4.2,2.6,7.6,1.7,10.6,5.2c6.3,7.2,42.8-18.4,63.1-21.5
				C257.1,218.9,260.8,227.1,260.8,227.1z"/>
			<path style="fill:#B4805D;" d="M131.9,249.2c-1.8-3.2-3.9-10.7-2.2-16.9C131.4,226.2,131.9,249.2,131.9,249.2z"/>
			<path style="fill:#B4805D;" d="M177.4,245.2c0,0,3.3,0.1,6.7,4c3.4,3.9,35.1-21.5,35.1-21.5S187.2,245.1,177.4,245.2z"/>
			<path style="fill:#1D7EC1;" d="M143.6,294.2c1.4,15.9,20.4,31.5,20.4,31.5l35.9-8.1c0,0,25.1,17.1,47.2,13.3
				c22.2-3.8,37.4-41.5,23.9-58.5s-24.1-29.7-34.3-27.2C204.9,253.1,143.6,294.2,143.6,294.2z"/>
			<path style="fill:#0872B9;" d="M206.9,316.1c0,0,29.8-6.2,29.8-10.7c0-4.5-10.7-12.1-5.2-11.8s9,3.5,9,3.5s4.8-7.6,6.5-5.2
				c1.7,2.4,0,8.7,0,8.7s5.5-0.7,11.8-2.4C265.1,296.3,234.3,317.4,206.9,316.1z"/>
			<path style="fill:#BD875F;" d="M71.4,213.1c1.6-5.6,3.7-4.5,3.7-4.5s-1.7-6.7,3.6-8.5c0,0,0.2-3.3,5.2-3.3c0,0-0.9-5.9,2.8-6.2
				s5.1,1.4,5.1,1.4s1-2.9,5.5-2.8c4.5,0.2,7.8,9.4,8.8,12.8c1,3.3,2.8,13.6,0,13.9c-2.8,0.3-10.8-19.2-10.8-19.2s6.5,18.9,3.1,20.1
				c-3.5,1.2-11.6-16.8-11.6-16.8s6.6,18.8,3.1,19.9s-10.3-9.3-10.3-9.3s4.6,5.7,2.2,7.4C79.2,219.7,71.4,213.1,71.4,213.1z"/>
		</g>
	</g>
</g>
</svg>
