<?xml version="1.0" encoding="utf-8"?>
<!-- Generator: Adobe Illustrator 23.0.3, SVG Export Plug-In . SVG Version: 6.00 Build 0)  -->
<svg version="1.1" xmlns="http://www.w3.org/2000/svg" xmlns:xlink="http://www.w3.org/1999/xlink" x="0px" y="0px" width="204.9px"
	 height="593.2px" viewBox="0 0 204.9 593.2" style="enable-background:new 0 0 204.9 593.2;" xml:space="preserve">
<g id="background">
</g>
<g id="Layer_1">
	<g>
		<path style="fill:#2B2D73;" d="M111.6,564.7v4.6c0,0,35.3,13.1,41.1,13.4c5.8,0.3,21.6-3,21.6-3v-4.9l-47.5-16.1L111.6,564.7z"/>
		<path style="fill:#2B2D73;" d="M111.6,564.7c6.4-7.6,17.1-21,32.3-19.2c0,0,10.7,10.4,16.5,13.4c5.8,3,12.8,9.4,14,15.8
			c0,0-7,4.9-16.8,4.9c-9.8,0-18.3-3-20.4-6.4c-2.1-3.4-7.6-8.2-12.8-8.2S111.6,564.7,111.6,564.7z"/>
		<path style="fill:#2B2D73;" d="M26,550.5c-11.6,0-19.2,18.6-21.9,23.2s-6.7,14-1.5,17.4s27.7,3.4,31.4-4c0,0,0.6-8.5,1.8-10.4
			c1.2-1.8,8.2-7.3,8.2-12.8C44,558.4,33,550.5,26,550.5z"/>
		<path style="fill:#383E98;" d="M56.8,277.3c0,0-23.3,147.1-28.8,166.3s-13,68.6-13,83s-8.2,32.7-8.2,32.7s32.2-1.9,41.1,6.3
			c0,0,3.4-30.9,8.9-43.9s10.3-54.2,20.6-80.9c10.3-26.7,29.5-67.9,29.5-77.5c0,0-5.5,30.9,0,42.5c5.5,11.7,2.7,109,4.1,113.8
			c1.4,4.8-9.6,34.3,0,43.2c0,0,28.8-12.3,45.2-6.9c0,0,4.1-15.1,0-27.4c-4.1-12.3,8.5-28.1,1.8-57.6c-6.6-29.5,10.5-71.3,16-112.4
			c5.5-41.1,4-72.5,4-72.5L56.8,277.3z"/>
		<path style="fill:#E7C2AF;" d="M114.5,48.4c-3.6-4.1-5.9-13-2.6-16c3.3-3,7,0,7,0L114.5,48.4z"/>
		<polygon style="fill:#D5B4A4;" points="116,54.3 106.8,79.4 120.3,114.9 135.4,117 143.7,102.1 143.7,82 		"/>
		<path style="fill:#E7C2AF;" d="M135.2,89.3C116.6,85,108.9,62.5,115.9,39s18.6-29.1,28.3-28.5c9.8,0.6,33,7,29.6,26.5
			c-3.4,19.1-8.8,36.7-17.6,43.1C147.3,86.6,144.3,91.4,135.2,89.3z"/>
		<path style="fill:#9354A1;" d="M106.8,79.4c6.9,11.6,15.7,32,36.9,22.7V88.9c0,0,32.8,9,42.5,20c9.8,11,19.2,86.5,18.6,88.7
			c0,0-25.6,2.1-28.9,5.5l-3.7-21.6L178,286c0,0-79.2,14.6-127.4-4.3l16.1-88.7c0,0-16.8-9.1-29.6,9.4c0,0,4.3-82.9,11.3-97.5
			S106.8,79.4,106.8,79.4z"/>
		<path style="fill:#DA6927;" d="M125.5,34.3c-0.3-7,6.1-13.1,13.1-14.2c6.9-1.1,14,1.7,19.8,5.7c3,2.1,5.7,4.5,8.9,6.1
			c3.2,1.7,7,2.6,10.4,1.4c5.9-2.1,8.1-9.3,8.5-15.6c0.2-2.9,0.2-6-1.5-8.4s-5.5-3.4-7.5-1.3c-1,1.1-1.4,2.9-2.7,3.7
			c-2,1.2-4.4-0.7-6.2-2.3c-7.7-7.2-19.1-11.9-28.9-8c-3.2,1.3-6,3.4-9.3,4.4c-3.2,1-6.8,1-9.8,2.5c-7.4,3.7-7.7,13.9-6.2,21
			C115.2,34.2,125.9,44.1,125.5,34.3z"/>
		<path style="fill:#E7C2AF;" d="M150.4,206.8c-2.8-0.3-1.9-7.7-1.3-8.6c0.6-0.9,8.2-5.6,10.3-5.9c2.1-0.3,6.2,1.9,8.7,3.3
			c2.5,1.4,5.8,3.1,7.2,4c1.4,0.8,4.5,4,6.1,4l-2.1-2.5l24-3.3c0,0,5.2,25-7.1,27.3c-12.3,2.3-20.2-5.6-22.7-5
			c-2.5,0.6-6.5,4.7-14.3,3.2c0,0-22.7-0.4-22.3-2.9c0.5-2.5,10.8-6.3,13.4-6.3s10.6-2.9,11.9-3.1c1.3-0.2,2.1-1.5,2.1-1.5l-0.8-3.3
			c0,0-4.6-1.3-5.6-2.5l-2.5-0.2C155.4,203.5,154.4,207.2,150.4,206.8z"/>
		<path style="fill:#9D9D9D;" d="M138.9,208.9c0,0,7.5-2.3,11.3-2.8c3.6,0.1,15.5,0.5,15.5,0.5v2.8l-15.5-0.3l-7.7,1.7L138.9,208.9z
			"/>
		<polygon style="fill:#666667;" points="165.6,209.4 150.1,209.1 142.4,210.8 145.2,212.5 		"/>
		<path style="fill:#D5B4A4;" d="M138.3,221.4c4.5,1.1,13.8-1.4,14-7.6c0,0-0.7,0.2-2.6,0.3c-1.9,0.1-11.5,4.3-12.1,5.3
			C137,220.4,136.5,221,138.3,221.4z"/>
		<path style="fill:#E7C2AF;" d="M40.6,194.3c-1.2,14-4.6,28,4.6,28.9s54.1-12.5,61.6-10.4s12.1,9.8,20.9,7
			c8.8-2.7,9.8,1.4,16.3-0.9c6.6-2.3,7.8-4.3,4.7-5.6c-3-1.4-18-9.3-18-11s3,1.4,5,1.1c0,0,0.2,3.8,5.2,4.7c0,0,2.7-7.5,1.1-9
			c-1.7-1.5-11.4-6.9-14.5-6.9s-25.9,0.6-28.2,1.2c-2.3,0.6-7,3.2-17.2,3.8c-10.2,0.6-24.9-1.3-26.4-1.7
			C49.3,194,40.6,194.3,40.6,194.3z"/>
		<path style="fill:#E7C2AF;" d="M65,200.4l1.8-7.3c0,0-10.6-5.5-26.1,1.2"/>
	</g>
</g>
</svg>
