<?xml version="1.0" encoding="utf-8"?>
<!-- Generator: Adobe Illustrator 23.0.3, SVG Export Plug-In . SVG Version: 6.00 Build 0)  -->
<svg version="1.1" xmlns="http://www.w3.org/2000/svg" xmlns:xlink="http://www.w3.org/1999/xlink" x="0px" y="0px" width="1610px"
	 height="648.3px" viewBox="0 0 1610 648.3" style="enable-background:new 0 0 1610 648.3;" xml:space="preserve">
<style type="text/css">
	.st0{clip-path:url(#SVGID_2_);}
	.st1{opacity:0.2;clip-path:url(#SVGID_4_);fill:#F4802A;}
	.st2{clip-path:url(#SVGID_4_);}
	.st3{opacity:0.2;fill:#9354A1;}
	.st4{opacity:0.4;fill:#F4802A;}
	.st5{opacity:0.3;fill:#F4802A;}
	.st6{opacity:0.2;fill:#F4802A;}
	.st7{opacity:0.5;fill:#EB202D;}
	.st8{opacity:0.5;fill:#F4802A;}
	.st9{opacity:0.5;clip-path:url(#SVGID_4_);fill:#EB202D;}
	.st10{opacity:0.5;clip-path:url(#SVGID_4_);fill:#F4802A;}
	.st11{fill:#FFFFFF;}
	.st12{clip-path:url(#SVGID_5_);}
	.st13{fill:#CDCDCD;}
	.st14{fill:#383E98;}
	.st15{fill:#2B2D73;}
	.st16{fill:#F4802A;}
	.st17{fill:#2D3288;}
	.st18{fill:url(#SVGID_6_);}
	.st19{fill:url(#SVGID_8_);}
	.st20{fill:url(#SVGID_9_);}
	.st21{fill:url(#SVGID_10_);}
	.st22{fill:url(#SVGID_11_);}
	.st23{fill:url(#SVGID_12_);}
	.st24{fill:url(#SVGID_13_);}
	.st25{fill:url(#SVGID_14_);}
	.st26{fill:url(#SVGID_15_);}
	.st27{fill:url(#SVGID_16_);}
	.st28{fill:url(#SVGID_17_);}
	.st29{fill:url(#SVGID_18_);}
	.st30{fill:url(#SVGID_19_);}
	.st31{fill:url(#SVGID_20_);}
	.st32{fill:url(#SVGID_21_);}
	.st33{fill:url(#SVGID_22_);}
	.st34{fill:url(#SVGID_23_);}
	.st35{fill:url(#SVGID_24_);}
	.st36{fill:#0872B9;}
	.st37{fill:#9D9D9D;}
	.st38{fill:url(#SVGID_25_);}
	.st39{fill:#EB202D;}
	.st40{fill:#F9A624;}
	.st41{opacity:0.2;fill:#6470B4;}
	.st42{fill:#FFFFFF;stroke:#F4802A;stroke-width:1.3007;stroke-miterlimit:10;}
	.st43{fill:url(#SVGID_26_);}
	.st44{fill:#FFFFFF;stroke:#F4802A;stroke-width:1.3009;stroke-miterlimit:10;}
	.st45{fill:url(#SVGID_27_);}
	.st46{fill:#15A564;}
	.st47{fill:#F05D44;}
	.st48{fill:#F1F0EE;}
	.st49{fill:#40C2D9;}
	.st50{fill:#2C180E;}
	.st51{fill:#A57357;}
	.st52{fill:#B4805D;}
	.st53{fill:none;stroke:#FFFFFF;stroke-width:2.3905;stroke-miterlimit:10;}
	.st54{fill:#BD875F;}
	.st55{fill:#3596D2;}
	.st56{fill:#1D7EC1;}
	.st57{fill:#432412;}
	.st58{fill:#EFCCA7;}
	.st59{fill:#E7C2AF;}
	.st60{fill:#D5B4A4;}
	.st61{fill:#9354A1;}
	.st62{fill:#DA6927;}
	.st63{fill:#666667;}
	.st64{display:none;}
	.st65{display:inline;}
	.st66{clip-path:url(#SVGID_28_);}
	.st67{fill:#BCD982;}
	.st68{fill:#6470B4;}
	.st69{fill:#272D68;}
	.st70{fill:#828DC5;}
	.st71{fill:#8D725E;}
	.st72{fill:#816957;}
	.st73{fill:#3F1F0F;}
	.st74{fill:#471F10;}
	.st75{fill:#CEB190;}
	.st76{fill:#DABF99;}
	.st77{fill:#5D3011;}
	.st78{opacity:0.6;fill:#076596;}
	.st79{fill:#4F2F23;}
	.st80{fill:#5B3726;}
	.st81{fill:#121110;}
	.st82{fill:#D8B19F;}
	.st83{fill:#AC842D;}
	.st84{opacity:0.3;fill:#383E98;}
	.st85{fill:#10101D;}
	.st86{fill:#833F30;}
	.st87{fill:#8D4831;}
	.st88{fill:#C39686;}
	.st89{fill:#92D8F3;}
	.st90{fill:#9B6656;}
	.st91{fill:#A3DCF7;}
	.st92{fill:#A46D59;}
	.st93{fill:#1E1614;}
	.st94{fill:#403635;}
	.st95{fill:#E4B2A0;}
	.st96{fill:#F0BDA8;}
	.st97{fill:none;stroke:#3596D2;stroke-miterlimit:10;}
	.st98{clip-path:url(#SVGID_29_);}
	.st99{opacity:0.2;clip-path:url(#SVGID_31_);fill:#F4802A;}
	.st100{clip-path:url(#SVGID_31_);}
	.st101{opacity:0.5;clip-path:url(#SVGID_31_);fill:#EB202D;}
	.st102{opacity:0.5;clip-path:url(#SVGID_31_);fill:#F4802A;}
	.st103{fill:#003B71;}
	.st104{fill:#113D65;}
	.st105{clip-path:url(#SVGID_33_);}
	.st106{fill:#141E79;}
	.st107{fill:#212B8F;}
	.st108{fill:#2E33A6;}
	.st109{fill:#6473DD;}
	.st110{fill:#8493FD;}
	.st111{fill:#672B8E;}
	.st112{fill:#9553AD;}
	.st113{fill:#17D0E4;}
	.st114{fill:#1FF3FE;}
	.st115{fill:#019BEB;}
	.st116{fill:#0071BA;}
	.st117{fill:#A0DEFE;}
	.st118{fill:#CECECE;}
	.st119{fill:#9E9E9E;}
	.st120{fill:#FE8225;}
	.st121{fill:#ED1C2B;}
	.st122{fill:#19A664;}
	.st123{fill:#017FCC;}
	.st124{fill:#F1F1EF;}
	.st125{fill:#FEA821;}
	.st126{fill:#F75C42;}
	.st127{fill:#BCE781;}
	.st128{clip-path:url(#SVGID_34_);}
	.st129{clip-path:url(#SVGID_35_);}
	.st130{clip-path:url(#SVGID_37_);}
	.st131{clip-path:url(#SVGID_38_);}
	.st132{clip-path:url(#SVGID_39_);}
	.st133{clip-path:url(#SVGID_40_);}
	.st134{fill:none;stroke:#FFFFFF;stroke-width:2.6699;stroke-miterlimit:10;}
	.st135{clip-path:url(#SVGID_41_);}
	.st136{clip-path:url(#SVGID_42_);}
	.st137{fill:none;stroke:#1FF3FE;stroke-width:0.75;stroke-miterlimit:10;}
	.st138{fill:url(#SVGID_43_);}
	.st139{fill:url(#SVGID_44_);}
	.st140{fill:url(#SVGID_45_);}
	.st141{fill:url(#SVGID_46_);}
	.st142{fill:url(#SVGID_47_);}
	.st143{fill:url(#SVGID_48_);}
	.st144{fill:url(#SVGID_49_);}
	.st145{fill:url(#SVGID_51_);}
	.st146{fill:url(#SVGID_52_);}
	.st147{fill:url(#SVGID_53_);}
	.st148{fill:url(#SVGID_54_);}
	.st149{fill:url(#SVGID_55_);}
	.st150{fill:url(#SVGID_57_);}
	.st151{fill:url(#SVGID_58_);}
	.st152{fill:url(#SVGID_59_);}
	.st153{fill:url(#SVGID_60_);}
	.st154{fill:url(#SVGID_61_);}
	.st155{fill:url(#SVGID_63_);}
	.st156{opacity:8.000000e-02;}
	.st157{clip-path:url(#SVGID_65_);}
	.st158{clip-path:url(#SVGID_66_);}
	.st159{clip-path:url(#SVGID_70_);}
	.st160{clip-path:url(#SVGID_71_);}
</style>
<g id="background">
</g>
<g id="Layer_1">
	<g>
		<g class="st64">
			<g class="st65">
				<defs>
					<path id="SVGID_32_" d="M5,195.4C81.6,141.6,335.3,114,491.3,155C707.1,211.7,929,488.8,1257,389.6
						c294.1-88.9,348-249.2,348-249.2v507.4H5V195.4z"/>
				</defs>
				<clipPath id="SVGID_2_">
					<use xlink:href="#SVGID_32_"  style="overflow:visible;"/>
				</clipPath>
			</g>
		</g>
		<polygon class="st67" points="466.3,352.6 480.5,469.1 511.9,472.5 507,345.6 		"/>
		<path class="st67" d="M444.2,471.6c0,0-34.7-97.5-23.2-110.1c11.5-12.5,63.6-22.8,103.2-23l2.7,4.3c0,0-85.5,11-96.8,20.8
			s22.6,105.1,22.6,105.1"/>
		<polygon class="st67" points="1055.3,352.6 1041.1,469.1 1009.7,472.5 1014.7,345.6 		"/>
		<path class="st67" d="M1063.4,464.9c0,0,39.4-115.5,28.1-125.3c-11.3-9.8-96.8-20.8-96.8-20.8l2.7-4.3
			c39.6,0.2,91.7,10.5,103.2,23c11.5,12.5-28.6,130.3-28.6,130.3s-12.2,35.9-31.9,37.9c-19.7,2.1-190.5-21-190.5-21l56-41.4
			L1063.4,464.9z"/>
		<path class="st68" d="M499.7,425.6c21.1-4.1,90.8,33.5,100.9,38.2c10.1,4.6,35.2,16.8,37.1,25c1.9,8.2-3,45.2-8.9,58.2
			c-5.8,13-37.9,176.7-48.9,178.1s-35.2-2.7-35.2-2.7s29.9-198.8,26.9-203.5c-2-3.2-52.3-26.4-67.2-49.8
			C496.3,456.1,494.5,440,499.7,425.6L499.7,425.6z"/>
		<g>
			<path class="st69" d="M556.6,564c0,0,30.7,14.6,67.6,4.4c0,0-32.3,129.8-28.7,138c3.6,8.2,17.3,29.4,19.1,39
				s-29.3,19.6-34.8,14.1c-5.6-5.5-24.9-36.8-24-49.7S556.6,564,556.6,564z"/>
		</g>
		<path class="st70" d="M642.6,447.2c21.3-2.1,41.3-3.1,50.9,2.5s19.4,14,20.5,22.4c1.1,8.3-4.5,46.2-11.6,58.6
			s-43.3,177-54.3,177.3c-11,0.3-34.7-6-34.7-6s19.9-185.4,17.4-190.4s-22.8-43.8-22.8-43.8L642.6,447.2z"/>
		<path class="st69" d="M624.8,572.4c0,0,29.4,18.1,66.9,10.7c0,0-43.2,133.4-40.3,142.3c2.9,8.9,14.8,32.4,15.7,42.7
			s-30.8,18-35.9,11.7s-21.7-40.9-19.7-54.3S624.8,572.4,624.8,572.4z"/>
		<path class="st69" d="M336.4,443.3c0,0,229.2,30.3,253.2,62.3S486.5,722.8,486.5,722.8l-44-7.2c0,0,75.8-172.2,72.7-181.8
			c-3.1-9.6-239.9-38.3-239.9-38.3L336.4,443.3z"/>
		<path class="st67" d="M491.5,752.3c0,0,23.1-203.4,9.1-204.3s-239.5,19.1-265.1,0c-25.6-19.1-59.1-212-51.4-223.2
			c7.8-11.2,45.4-21.9,45.4-21.9l-12.2-7.6c0,0-43.4,14-46.6,24.7c-3.2,10.7,25.2,220.7,52.9,242.1l25.8,199.1h54.9
			c0,0,2.7-152.1,19.7-162.8c17.1-10.7,103.6-15,112.2-6.4c8.5,8.5,16.1,161.8,16.1,161.8L491.5,752.3z"/>
		<polygon class="st71" points="642.6,222.7 667.6,230.3 645.8,289 635.5,287.1 		"/>
		<path class="st15" d="M705.7,323.3c0,0-17.2,30.6-26.6,75.2s-45.2,44.8-45.2,44.8l-41.1-93.4l31-26.6H705.7z"/>
		<path class="st17" d="M542.8,366.7c0,0-40.4,51.1-46.7,58.9c0,0,56.8,82.5,77.8,80.1s37.3-59.1,85.5-50.6c0,0,28.8-6.4,18.7-53
			C668,355.6,542.8,366.7,542.8,366.7z"/>
		<path class="st72" d="M663.7,198.1c0,0-20.4,29.5-22.2,42.2c-1.8,12.7,0,40.4,0,40.4s-31-75-38.5-80.8c0,0,19.3-8.8,18.7-29.2
			L663.7,198.1z"/>
		<path class="st49" d="M654.4,211.7L672,377.5l-35.2,7c0,0-16.8-172.8-33.8-191l2.9,4.3l38.3,87C644.3,284.8,650.7,246,654.4,211.7
			z"/>
		<path class="st17" d="M693.2,188.2c0,0,12.7-4,20.2,5.3c7.5,9.3,21.9,147.4,21.4,153.6c-0.5,6.2-24.4,19.6-24.4,19.6
			s3.8-33.3-7.2-36.2h-24.4l-10.9-2.3l-17.3-109.3l13-25.4L693.2,188.2z"/>
		<path class="st17" d="M575.8,183c-5.9-3.7-13.6-11.2-28.8,1.4c-15.2,12.6-56.6,164.9-27.4,177.1c29.2,12.2,88.7,10.4,88.7,10.4
			s-3.5-32.9,10.2-35.7c0,0-9.4,7,7.3,3.5l7,1.2c0,0,9.8-99.6-29.8-147.5L575.8,183z"/>
		<path class="st73" d="M619,70.1c-5.9-6.8,47.4-14.9,63.1,4.9c15.7,19.7,16.8,53.6,27.3,62.3s9.3,30.4-1.8,41.4
			S681,203.2,693.2,226c12.2,22.8,14.7,41.4-1.5,54.3c-16.2,12.8-22.1,16.8-32.4,39.2c0,0-15.6-65.7-13.6-79.2
			c2-13.5-1.1-43.3,5-64.9S654,110.2,619,70.1z"/>
		<path class="st71" d="M656.6,72.4c17,3.7,35.4,15.5,34.6,50c-0.4,18.2,9.4,27.6,3.9,32.5c-12,10.4,8.8,49.4-27.4,49
			c-32.7-0.4-63.9-37.1-69.1-57S583.7,56.6,656.6,72.4z"/>
		<path class="st73" d="M659.4,70.1c0,0-11.3,28.1-32,39.8c-20.7,11.7,5.5,66.6,0,77.4s-28.9,17.6-51.6-4.3
			c-12-11.6-24.7-3.7-28.8,1.4c-4.1,5.1,20-122.8,65.5-121.8C658.1,63.6,659.4,70.1,659.4,70.1z"/>
		<path class="st73" d="M660.2,69.6c11.7,4.7,26.7,16,33.1,29c0,0-32.9-1.5-36.9-13.3S660.2,69.6,660.2,69.6z"/>
		<g>
			<path class="st74" d="M613.7,70.1c-1.8,1.6-3.7,3-5.6,4.4c-1.9,1.4-3.7,2.9-5.4,4.4c-3.4,3-6.1,6.5-8.3,10.4
				c-1.1,1.9-2,3.9-2.9,5.9c-0.4,1-0.8,2.1-1.2,3.1c-0.4,1-0.7,2.1-1,3.2c-0.7,2.1-1.2,4.3-1.8,6.5c-0.5,2.2-0.9,4.4-1.4,6.7
				c-1.8,9.5-5,18.9-9.6,27.3c-2.3,4.3-5,8.3-8,12c-3,3.7-6.4,7.2-10.3,10c2.8-3.9,5.2-7.9,7.4-12c2.2-4.1,4.2-8.2,5.9-12.5
				c3.5-8.5,6-17.3,7.6-26.2c0.5-2.3,1-4.7,1.5-7.1l1-3.5c0.3-1.2,0.7-2.3,1.2-3.5c1.6-4.6,3.9-9.1,6.9-13.2c3-4,6.7-7.5,10.9-10.1
				C604.9,73.5,609.3,71.9,613.7,70.1z"/>
		</g>
		<g>
			<path class="st74" d="M637.6,75c-1.2,2.6-3,4.8-4.8,7.1c-1.8,2.2-3.6,4.4-5.5,6.5c-3.7,4.2-7.4,8.4-10.9,12.7
				c-3.4,4.3-6.6,8.7-8.6,13.3c-1,2.3-1.4,4.5-1.3,6.5c0.2,2.5,0.7,5.2,1.3,7.9c0.5,2.7,1.2,5.4,1.8,8.1c0.6,2.7,1.2,5.5,1.8,8.3
				c0.6,2.8,1.1,5.6,1.5,8.5c0.4,2.9,0.7,5.8,0.7,8.8c0,1.5-0.1,3.1-0.4,4.6c-0.3,1.6-0.8,3.2-1.8,4.8c-0.1,0.2-0.2,0.4-0.4,0.6
				l-0.5,0.5c-0.3,0.4-0.7,0.7-1,1c-0.4,0.3-0.7,0.5-1.1,0.7l-1,0.6c-0.7,0.4-1.4,0.6-2.1,0.9c-0.7,0.3-1.5,0.5-2.2,0.7
				c-3,0.7-6,0.7-8.9,0.4c-2.9-0.4-5.7-1.1-8.3-2.2c5.6,0.7,11.3,0.4,16.1-1.5c0.6-0.3,1.2-0.5,1.7-0.8c0.5-0.3,1.1-0.6,1.6-1
				l0.7-0.6c0.3-0.2,0.5-0.4,0.6-0.5c0.2-0.2,0.3-0.3,0.4-0.5l0.2-0.3c0.1-0.1,0.1-0.2,0.2-0.3c0.4-0.9,0.6-2,0.7-3.2
				c0.1-1.2,0-2.5,0-3.8c-0.5-5.2-1.8-10.6-3.2-15.9c-1.4-5.4-2.8-10.8-4-16.5c-0.6-2.8-1.1-5.7-1.3-8.8c-0.1-1.7,0-3.6,0.5-5.2
				c0.2-0.8,0.5-1.6,0.7-2.4c0.3-0.7,0.6-1.5,0.9-2.2c1.3-2.8,3-5.4,4.8-7.7c1.8-2.3,3.7-4.5,5.7-6.6c4-4.1,8.3-7.9,12.6-11.5
				l6.5-5.4c1.1-0.9,2.1-1.8,3.2-2.7C635.7,77,636.7,76.1,637.6,75z"/>
		</g>
		<polygon class="st15" points="613.7,336.2 552.1,323.3 567.7,246 		"/>
		<circle class="st40" cx="611.5" cy="155.3" r="2.2"/>
		<circle class="st40" cx="609.3" cy="129.7" r="2.2"/>
		
			<rect x="604.2" y="148" transform="matrix(0.8176 -0.5757 0.5757 0.8176 24.3534 376.022)" class="st40" width="3.2" height="3.2"/>
		<path class="st15" d="M710.4,366.7c0,0-19-4.6-20-13.6c-1-9,20.4-14.6,20.4-14.6L710.4,366.7z"/>
		<path class="st15" d="M207,488.1c-6.1,22.1,30.7,73.2,102,76.7c71.4,3.5,212.6-0.1,219.9,2.8c7.4,2.9-44.1,165.5-44.1,165.5
			l65.4,14.7c0,0,82.6-167,61.4-208.2c-30.5-59.4-289-77.5-289-77.5L207,488.1z"/>
		<path class="st17" d="M895.7,425.6c0,0-123.3,93.7-129.2,119.8c-5.9,26.1-10.6,41.2,19.7,66.1c30.3,24.9,144.1,83.2,144.1,83.2
			s23-37.4,23.3-47.4c0.3-10-114.1-73.9-106.1-87.1c7.9-13.2,90.1-67.5,90.1-67.5s97.5-39.1,99.9-73.3L895.7,425.6z"/>
		<path class="st17" d="M981,431.6c0,0-122.7,109.9-122.9,131.6c-0.5,52.9,61.2,140.8,61.2,140.8l44.8-4.2c0,0-27-112.5-19.6-128.8
			c7.4-16.3,126.4-61.4,118.6-145.5"/>
		<path class="st75" d="M801.9,332.3c0,0-12.8,6.7-15.8,11.1c0,0,24.3,6.9,28.6,18.1l30.2-24.6C844.8,336.9,825.3,309.7,801.9,332.3
			z"/>
		<path class="st75" d="M907.4,168.6c0,0,14.3,32,18.9,45.7c4.6,13.7,32.3,24.2,47.6,7.3s8.8-37.9,0-58.1S907.4,168.6,907.4,168.6z"
			/>
		<path class="st76" d="M907.4,67c14.5-6,52.2-6.4,62.3,28.7s21,78,0,98.9c-21,21-51.7-2.1-70.6-26c0,0-36.2-16.1-23.7-34
			C875.5,134.7,852.9,89.6,907.4,67z"/>
		<path class="st77" d="M875.8,129.2c7.4,3.5,16.7,2.7,23.4-2.1c10.9-7.8,14.2-24.1,26.3-29.8c8-3.8,17.5-1.7,26.3-3.4
			c10.8-2,20.2-10.1,23.8-20.4s1.3-22.5-5.9-30.8c1.9,6-1.8,13.1-7.7,15.1c-1.5-9.6-9.8-17.8-19.4-19.2c3.7,6.8-3.1,15.2-10.7,17
			s-15.4-0.5-23.1-0.8c-14.3-0.5-28.6,6.2-37.3,17.5C859.9,87.2,855.1,119.4,875.8,129.2z"/>
		<path class="st75" d="M941.7,131.2c1.9,5.4,20.6,13.2,18.7,17.9c-2,4.7-9.3,3.5-9.3,3.5"/>
		<path class="st36" d="M918.7,194.6c0,0-45.9,3.4-62.7,27s-35.2,92.8-48.2,99s-21.7,13.2-21.7,13.2s38.4,4,42.2,13.3
			s49.9-8.6,51.4-13.3c0,0,27.5,91.8,37,98c9.5,6.2,147.2-6.2,147.2-6.2s-45.1-206-31.9-222.8s17.9-14.4,29.6-10.1
			s-21.2-16.3-79.5-4.9c0,0-11.4,26.2-23.5,30.1C946.5,221.8,918.7,194.6,918.7,194.6z"/>
		<path class="st36" d="M1012.6,204.9c-1.4-10.2,21.2-30.6,49-12.2c18.3,12.2,29.7,144.4,12.9,156.8s-54.1,19.4-60.3,26.4
			c0,0-3.1-28-22.6-35c0,0,30.3-19.5,40.4-21.6C1032,319.4,1025.4,299.5,1012.6,204.9z"/>
		<path class="st75" d="M1002.5,339.3c0,0-63.9,15.6-77.5,15.6s-37.2-23.3-49.5-17.7c-12.3,5.6-14,27.8-14,27.8l14,11.1
			c0,0,8.3-4.5,17-1.5c8.8,2.9,29.2-4.8,33.8-2.5c4.6,2.3,69.9,2.3,94-7L1002.5,339.3z"/>
		<path class="st78" d="M879.7,333.8c0,0,13.8-66.9,8.4-77l17.4,90.3L879.7,333.8z"/>
		<path class="st78" d="M991.6,341c0,0,31.9-22,40.4-21.6c0,0-12.4-51.7-11.7-62.6C1021.1,245.9,991.6,341,991.6,341z"/>
		<path class="st79" d="M1258.6,210.8l31.3-4.2c0,0,52-8.8,84.8,2s-42,48.5-91.2,34.3C1234.4,228.6,1258.6,210.8,1258.6,210.8z"/>
		<path class="st67" d="M1096.2,752.3c0,0-17.4-152.9-3.4-153.8c14-0.9,239.5,19.1,265.1,0c25.6-19.1,60.7-221.6,52.9-232.8
			c-7.8-11.2-45.4-21.9-45.4-21.9l15.4-9.6c0,0,40.1,16,43.3,26.7c3.2,10.7-26.7,230.4-54.5,251.7l-11.2,135.3l-63.6-5.8
			c0,0-8.6-82.5-25.6-93.2c-17.1-10.7-103.6-15-112.2-6.4c-8.5,8.5-12.7,105.4-12.7,105.4L1096.2,752.3z"/>
		<path class="st69" d="M1215.1,455.1c0,0-2.8,10.7-11.4,16.4s-193.7,20.3-210.1,45.9c-16.4,25.6-24,200.6-24,200.6h43.8
			c0,0,45-175.3,57.8-182.4c12.8-7.1,108.3-44.2,158.8-46.3c0,0,49.3,4.3,57.1-2.1c7.8-6.4,7.8-6.4,7.8-6.4
			S1272.1,456.6,1215.1,455.1z"/>
		<path class="st15" d="M1025.4,753.5c7.8-10.7,44.4-128.9,43-139.5s17.1-16.4,38.5-16.4c21.4,0,203,25.6,237.2-4.3
			c34.2-29.9,17.1-102.6,17.1-102.6l-66.2-10c0,0-10,11.4-64.8,8.6s-207.3,38.5-213,57c-5.7,18.5-43,204.7-43,204.7L1025.4,753.5z"
			/>
		<path class="st80" d="M1176.7,310.5c0,0-16.4,24.2-21.4,27.1c-5,2.8-144.6,10.7-144.6,10.7s-34.9-10-59.8,0
			c-24.9,10-0.7,27.1,3.6,24.9c4.3-2.1-3.2-19.8,4.5-13.8c7.6,6,19,0.3,30.4,7.4c11.4,7.1,22.1,0.7,22.1,0.7s132.5,18.6,148.9,14.3
			c16.4-4.3,64.6-49.6,64.6-49.6l-7.7-29.1L1176.7,310.5z"/>
		<path class="st79" d="M1327.1,164.9c0,0,16.8,32.6,31.4,38.1c14.6,5.5-26.7,55.7-71.8,29.9l-2.5-31.9
			C1284.2,201,1321.1,182.6,1327.1,164.9z"/>
		<path class="st68" d="M1287.2,231.3c6.3,3.9,69,12.8,87.5-22.7c0,0,28.5,2,42,8.4c6.7,3.2,41.9,46.1,53.9,87.2
			c-7.6,42-40,38.5-56.5,33.7c-14.8-34.1-9.8-78.9-14.5-81.6c0,0,6.4,79.1,2.1,136s-17.8,166-31.3,174.5
			c-13.5,8.5-10.8-97.6-161.1-108.3c0,0,29.3-92.6,21.4-118.2s-30.6,17.1-60.5-31.3c0,0,43.2-53.1,46.2-67.2
			c3.1-14.1,32.8-35.4,46.4-33.2C1276.4,210.8,1273,222.5,1287.2,231.3z"/>
		<path class="st80" d="M1262.6,44.7c-27.2,11-37.4,41.7-32,74.8c5.3,33.1-12,37.4-1.2,42.7s4.4,29.9,23.6,39.5
			c19.2,9.6,64.1-2.1,80.1-44.9S1339.5,13.7,1262.6,44.7z"/>
		<path class="st81" d="M1219.7,68.2c-0.4,11.4,16.8,39.3,46.2,20.9s52.1-7.3,56.5-0.1c4.4,7.2-36,38.6-13.8,72.4
			s48.7,16.3,53.2,4.4s42.4-54.6,19.4-79.4c0,0-0.1-42.8-46.8-47.7c0,0-34.3-35.3-72.4-5.9C1261.9,32.8,1221.4,21.9,1219.7,68.2z"/>
		<path class="st80" d="M1456.2,295.2c0,0,24.6,77.6,24.6,86.6c0,8.6-66.2,58-109,73.3c0,0-11.8,21-20.3,25.6s-38,5.9-43.8,0
			c-12.8-13.1-7.1-23.3,0-25.6c5.4-1.7,22.1,7.1,28.7,0c6.6-7.1-15.2-6.1-18.7-9.3s1.5-10.7,18.7-8.5s21.5,3.2,29-6.4
			c7.5-9.6,70.5-52.4,70.5-62s-21.8-57.7-21.8-57.7L1456.2,295.2z"/>
		<path class="st68" d="M1396.2,256.8c0,0,3.3,88.3,18.3,89.4s66.3-36.1,66.3-36.1l-38.4-54.7L1396.2,256.8z"/>
		<g>
			<path class="st74" d="M676.2,225.6c2.1,3.4,4.6,6.3,7,9.5c2.3,3.2,4.5,6.6,6.2,10.4c1.7,3.8,2.8,8.1,2.7,12.6
				c0,4.5-1.4,9-3.6,12.7c-1.1,1.9-2.4,3.6-3.8,5.3c-0.7,0.8-1.5,1.5-2.2,2.3c-0.7,0.7-1.4,1.4-2.1,2c-2.8,2.7-5.6,5.4-8.5,8
				c-2.9,2.6-5.7,5.3-8.6,7.9l-8.8,7.9c0.8-1.8,1.9-3.5,2.9-5.2c1-1.7,2.1-3.3,3.3-5c2.3-3.2,4.7-6.4,7.2-9.4c2.5-3,5.1-6,7.7-8.9
				c0.7-0.7,1.3-1.4,2-2.2c0.6-0.7,1.2-1.3,1.8-2c1.1-1.4,2.2-2.8,3-4.3c0.5-0.7,0.8-1.5,1.2-2.2c0.3-0.8,0.7-1.5,0.9-2.3
				c0.5-1.6,0.9-3.2,1-4.9c0.1-1.7,0.1-3.4-0.1-5.1c-0.2-1.7-0.6-3.5-1.1-5.3c-1-3.5-2.5-7-4-10.6c-0.8-1.8-1.6-3.6-2.3-5.5
				C677.1,229.5,676.5,227.6,676.2,225.6z"/>
		</g>
		<path class="st82" d="M226.9,121c0,0,5.5,28.5,0,35.3l51.8,40.9l12.3-38.1L226.9,121z"/>
		<path class="st59" d="M331.7,28c9.9,15.4,6.8,58.2,11.6,67.3s11.6,27.6,3.4,31.9c-11,5.8-1.7,27.3-11.6,36.9
			c-15,14.7-97.5,15.8-116.6-47.8s-0.7-90.6,34.8-103S321.4,12.1,331.7,28z"/>
		<path class="st55" d="M369.8,446.9c0,0-38.1-238.6-78.9-255.9c-48.3-20.5-60.5-40.2-67.6-33.5c-6.7,6.3-8.1,13.4-13.2,26.9
			c-6.6,17.4-5.8,23.6-5.6,42.2c0.7,65.8,1.3,243.6-10.8,264.5c0,0,61.6,29.3,96.2,4.4S369.8,446.9,369.8,446.9z"/>
		<path class="st71" d="M615.7,129.7c-10.5-9.6-21.4,16.3-3.6,27.6C629.8,168.7,615.7,129.7,615.7,129.7z"/>
		<polyline class="st71" points="615.7,129.7 630.3,137 635.5,176.5 612,157.4 		"/>
		<path class="st83" d="M282.5,56.4c1.1-2.7,2.1-5.4,3.2-8.1c-18.5,12.7-31.7,32.8-35.9,54.8c-2.5-3.9-5-7.8-7.4-11.7
			c-8.1,7.9-12.2,19.6-10.8,30.8s8.5,26.6,18.2,32.2c-10,0.6-20.1-9-27.3-15.9c-7.2-7-12-16.1-15-25.7c-9.7-30.7-13.1-72,10.2-94.2
			s72.5-23.4,101.5-9.3c12.4,6.1,24,13.9,24,37.2c-7.2-14.5-13.5-13.4-22.9-6.1C309.4,49,295.7,52.8,282.5,56.4z"/>
		<path class="st84" d="M1224.9,332.2l27.7-37l-21.5,71.4C1231.1,366.7,1239,348.5,1224.9,332.2z"/>
		<path class="st76" d="M758.2,372c-3.3-12.5,5.1-31.3,17.5-31c12.4,0.2,33.4,7.4,42.4,17.7s-4.4,19.6-9.1,17.3
			C804.3,373.7,759.5,376.9,758.2,372z"/>
		<path class="st71" d="M613.7,339.6c0,0,7.6,4.7,19.1,2.2c11.4-2.5,38.8-10.4,42.9-6.8c4.1,3.6,11.4,13.4,10.5,16.4
			c-0.9,2.9-9,21.6-22.5,20.6c-13.4-1-55.8-7.1-55.8-7.1S607.8,345.3,613.7,339.6z"/>
		<path class="st72" d="M688.7,330.5l-5.5,7.3c0,0,21.6,5.4,22.5,9.3h8.5c0,0,0.6-19.5-21.4-18.9L688.7,330.5z"/>
		<path class="st72" d="M683.3,337.8l-6-1.6c0,0,5,22.6,0,26.2s19.4-1.1,28.5-15.3C705.7,347.1,701.9,341,683.3,337.8z"/>
		<path class="st56" d="M215.6,185.3c26.4-15.7,52.3-9.8,59.7,0.3c7.4,10.1,33.8,107.9,33.8,107.9s-75.2,19.3-80.9,29.5
			C228.2,323.1,190.6,200.2,215.6,185.3z"/>
		<path class="st59" d="M237.5,316.1c0,0,29.3,69.5,32.2,78.3c2.9,8.8,31.2,23.7,46.7,10.4c15.4-13.2,108.9-83.2,108.9-83.2
			s39.7-13.1,40.5-21.1s15.4-17.7-10.6-25.5c-13.2-3.9-20.3,17.9-26.2,19.4C423.1,296,434,268,434,268s-12.1-5.2-12.1,5.5
			s-18.7,32.7-18.7,32.7l-88.4,43.7L304,294.5L237.5,316.1z"/>
		<path class="st85" d="M434.9,292.7l22.5-67.4c0,0-10.4-4.8-10.9-1.8c-0.5,2.9-19,69-19,69L434.9,292.7z"/>
		<path class="st86" d="M405,389.9l9.4,25.7c0,0,427.2,52.7,668.2,9.9l3.5-30.4L405,389.9z"/>
		<path class="st87" d="M347.5,376v10.7c0,0,371.1,22.5,525.5,17.5s281.1-9,281.1-9v-15.5L347.5,376z"/>
		<ellipse class="st88" cx="297.9" cy="105.8" rx="1.7" ry="0.7"/>
		<ellipse class="st88" cx="306.1" cy="118.7" rx="1.7" ry="0.7"/>
		<ellipse class="st88" cx="314.6" cy="105.8" rx="1.7" ry="0.7"/>
		<polygon class="st87" points="457.4,419.4 546,761.1 570.6,761.1 490.1,423.7 		"/>
		<polygon class="st87" points="1011.8,433.6 926.3,753.7 901.7,753.7 979.2,437.9 		"/>
		<polygon class="st86" points="622.1,432.8 655.3,713.8 673.1,711.1 641.3,432.8 		"/>
		<polygon class="st86" points="821.1,432.8 796.3,711.9 778.5,709.2 802,432.8 		"/>
	</g>
</g>
</svg>
