<?xml version="1.0" encoding="utf-8"?>
<!-- Generator: Adobe Illustrator 23.0.3, SVG Export Plug-In . SVG Version: 6.00 Build 0)  -->
<svg version="1.1" xmlns="http://www.w3.org/2000/svg" xmlns:xlink="http://www.w3.org/1999/xlink" x="0px" y="0px" width="157.1px"
	 height="41.4px" viewBox="0 0 157.1 41.4" style="enable-background:new 0 0 157.1 41.4;" xml:space="preserve">
<g id="background">
</g>
<g id="Layer_1">
	<g>
		<g>
			<path style="fill:#003B71;" d="M75.3,33.6h-5l-3.5-14.4h-0.1l-3.4,14.4h-4.9l-5.6-21.7H58l3.3,14.6h0.1l3.5-14.6h4.7l3.6,14.6
				h0.1l0.2-1l3.2-13.7h4.2L75.3,33.6z"/>
			<path style="fill:#003B71;" d="M85.4,26.3l0,0.8c0,1.9,1.1,3.5,3.1,3.5c1.4,0,2.8-1,2.8-2.5l4.3,0.3c0,0.8-1.9,5.5-7.3,5.5
				c-4.8,0-7.9-3.4-7.9-8.1c0-4.7,2.8-8.6,7.8-8.6c2.2,0,4.6,1,5.9,2.8c1.3,1.8,1.7,4.1,1.6,6.3H85.4z M91.1,23.6
				c-0.1-1.7-0.7-3.4-2.7-3.4c-2.1,0-2.8,1.5-3,3.4H91.1z"/>
			<path style="fill:#003B71;" d="M107.5,22.3c-0.4-1.5-1.6-2.2-3.1-2.2c-1,0-2.4,0.3-2.4,1.4c0,3,9.7-0.4,9.7,6.8
				c0,1.7-0.8,3.2-2.2,4.1c-1.5,1-3.2,1.3-5,1.3c-3.4,0-6.5-1.1-7.3-4.7l4-0.6c0.3,1.6,2.1,2.2,3.5,2.2c0.9,0,2.8-0.3,2.8-1.5
				c0-1.1-1-1.3-1.8-1.4c-1.1-0.1-3.8-0.6-4.8-0.9c-1.9-0.7-3.2-2.3-3.2-4.3c0-4,3.5-5.4,6.9-5.4c3.2,0,5.2,1.2,6.3,4.2L107.5,22.3z
				"/>
			<path style="fill:#003B71;" d="M123.2,21.2h-3.5v6.4c0,2.1,0.2,2.6,2.2,2.6c0.4,0,1-0.1,1.6-0.1v3.5c-0.9,0.2-2.1,0.3-2.9,0.3
				c-1.3,0-3.1-0.2-4.1-1c-1.3-1.1-1.3-3-1.3-4.6v-7.1h-2.6v-3.7h2.8l0.4-4.7l4.1-0.3v5h3.5V21.2z"/>
			<path style="fill:#003B71;" d="M135.6,33.6c-0.2-0.8-0.3-1.7-0.2-2.5c-1.3,1.9-2.7,2.8-5.1,2.8c-2.8,0-5.1-1.5-5.1-4.6
				c0-2.4,1.5-4,3.6-4.8c1.8-0.7,4.4-0.8,6.4-1v-0.4c0-0.7,0.1-1.5-0.4-2.1c-0.4-0.5-1.2-0.8-1.9-0.8c-1.5,0-2.8,0.8-2.8,2.3
				l-4.4-0.4c0.5-3.9,4.3-5,7.7-5c1.6,0,3.8,0.4,5.1,1.5c1.6,1.3,1.5,3.1,1.5,5v7.5c0,0.8,0.1,1.6,0.3,2.4H135.6z M135.2,25.9
				c-1.8,0.2-5,0.6-5,2.9c0,1.3,0.8,2.1,2.1,2.1c1,0,1.8-0.5,2.3-1.3c0.7-1,0.6-2,0.6-3.1V25.9z"/>
			<path style="fill:#003B71;" d="M152.4,21.2h-3.5v6.4c0,2.1,0.2,2.6,2.2,2.6c0.4,0,1-0.1,1.6-0.1v3.5c-0.9,0.2-2.1,0.3-2.9,0.3
				c-1.3,0-3.1-0.2-4.1-1c-1.3-1.1-1.3-3-1.3-4.6v-7.1h-2.6v-3.7h2.8l0.4-4.7l4.1-0.3v5h3.5V21.2z"/>
		</g>
		<g>
			<path style="fill:#003B71;" d="M154.8,11.9c1.2,0,2.3,1,2.3,2.3c0,1.3-1,2.3-2.3,2.3c-1.3,0-2.3-1-2.3-2.3
				C152.5,12.9,153.5,11.9,154.8,11.9z M154.8,16.1c1,0,1.9-0.8,1.9-1.9c0-1.1-0.8-1.9-1.9-1.9c-1,0-1.9,0.8-1.9,1.9
				C152.9,15.2,153.7,16.1,154.8,16.1z M154.3,15.4h-0.5V13h1.1c0.1,0,0.9,0,0.9,0.7c0,0.5-0.3,0.6-0.5,0.7l0.5,1.1h-0.6l-0.4-1
				h-0.6V15.4z M154.3,14h0.5c0.2,0,0.5,0,0.5-0.3c0-0.1-0.1-0.3-0.4-0.3h-0.6V14z"/>
		</g>
		<g>
			<polygon style="fill:#003B71;" points="44.4,0 19.7,34.2 23.8,41.4 47.6,0 			"/>
			<polygon style="fill:#003B71;" points="38.7,0 36.8,0 15.6,27.1 30.7,0 0,0 19.7,34.2 			"/>
		</g>
	</g>
</g>
</svg>
