<?xml version="1.0" encoding="utf-8"?>
<!-- Generator: Adobe Illustrator 23.0.3, SVG Export Plug-In . SVG Version: 6.00 Build 0)  -->
<svg version="1.1" xmlns="http://www.w3.org/2000/svg" xmlns:xlink="http://www.w3.org/1999/xlink" x="0px" y="0px" width="123.4px"
	 height="21.7px" viewBox="0 0 123.4 21.7" style="enable-background:new 0 0 123.4 21.7;" xml:space="preserve">
<g id="background">
</g>
<g id="Layer_1">
	<g>
		<path style="fill:#113D65;" d="M12.9,21.2L7.2,7.5H7.1L4.8,21.2H0L3.6,0.6h5.4l5.7,13.6h0.1l2.3-13.6h4.8l-3.6,20.6H12.9z"/>
		<path style="fill:#113D65;" d="M23,21.2l3.6-20.6h4.9l-3.6,20.6H23z"/>
		<path style="fill:#113D65;" d="M43.9,16.8c-0.3,0.9-0.7,1.7-1.2,2.4c-0.5,0.7-1.3,1.3-2.2,1.8c-0.9,0.5-2,0.7-3.4,0.7
			c-1.8,0-3.2-0.4-4.3-1.3c-1.1-0.9-1.8-2-2.1-3.5l4.5-1.5c0.1,0.5,0.3,1,0.6,1.3c0.3,0.4,0.8,0.6,1.3,0.6c0.9,0,1.5-0.3,1.8-0.9
			c0.4-0.6,0.6-1.4,0.8-2.3l2.4-13.6H47l-2.4,13.7C44.4,15.1,44.2,15.9,43.9,16.8z"/>
		<path style="fill:#113D65;" d="M52.9,18.4c0,0.4-0.1,0.8-0.2,1.1s-0.3,0.7-0.6,0.9c-0.3,0.3-0.6,0.5-0.9,0.6
			c-0.4,0.2-0.7,0.2-1.2,0.2c-0.8,0-1.4-0.2-1.9-0.7c-0.5-0.5-0.7-1.1-0.7-1.8c0-0.9,0.3-1.6,0.8-2.1c0.6-0.6,1.3-0.8,2.1-0.8
			c0.8,0,1.4,0.2,1.9,0.7C52.6,17.1,52.9,17.7,52.9,18.4z"/>
		<path style="fill:#113D65;" d="M67.4,17.5c0.6,0,1.1-0.1,1.6-0.2c0.5-0.1,1-0.2,1.4-0.5L71,13h-4l0.7-4h8.5l-1.9,10.9
			c-1,0.5-2.2,1-3.5,1.3c-1.3,0.3-2.7,0.5-4.1,0.5c-1.5,0-2.8-0.2-4-0.6c-1.2-0.4-2.2-1-3.1-1.8c-0.9-0.8-1.5-1.7-2-2.8
			s-0.7-2.3-0.7-3.7c0-1.8,0.3-3.4,0.9-5c0.6-1.6,1.5-2.9,2.6-4.1c1.1-1.2,2.4-2.1,3.9-2.7c1.5-0.7,3.1-1,4.9-1
			c1.6,0,3.1,0.3,4.4,0.8c1.3,0.5,2.4,1.3,3.1,2.3l-3.5,3.2c-0.4-0.6-0.9-1-1.6-1.4S70,4.3,69,4.3c-1,0-1.9,0.2-2.8,0.6
			c-0.9,0.4-1.6,1-2.2,1.7c-0.6,0.7-1.1,1.6-1.5,2.5c-0.4,1-0.5,2-0.5,3c0,0.8,0.1,1.5,0.3,2.1c0.2,0.7,0.6,1.2,1,1.7
			c0.5,0.5,1,0.8,1.7,1.1C65.7,17.4,66.5,17.5,67.4,17.5z"/>
		<path style="fill:#113D65;" d="M90.9,0c1.6,0,2.9,0.2,4.2,0.6c1.2,0.4,2.3,1,3.1,1.8c0.9,0.8,1.5,1.8,2,2.9
			c0.5,1.1,0.7,2.4,0.7,3.8c0,1.7-0.3,3.4-0.9,4.9c-0.6,1.5-1.4,2.9-2.5,4c-1.1,1.1-2.3,2-3.8,2.7c-1.5,0.7-3.1,1-4.9,1
			c-1.6,0-3-0.2-4.2-0.6c-1.2-0.4-2.3-1-3.2-1.8c-0.9-0.8-1.5-1.8-2-2.9c-0.5-1.1-0.7-2.4-0.7-3.8c0-1.7,0.3-3.4,0.9-4.9
			c0.6-1.5,1.4-2.9,2.5-4s2.4-2,3.9-2.7C87.5,0.4,89.1,0,90.9,0z M89,17.3c1.1,0,2-0.2,2.9-0.7c0.8-0.4,1.6-1,2.1-1.7
			c0.6-0.7,1-1.6,1.3-2.5s0.5-1.9,0.5-2.9c0-0.7-0.1-1.4-0.3-2c-0.2-0.6-0.6-1.2-1-1.6c-0.4-0.5-1-0.8-1.6-1.1
			c-0.7-0.3-1.4-0.4-2.2-0.4c-1,0-2,0.2-2.8,0.7c-0.8,0.4-1.6,1-2.2,1.8c-0.6,0.7-1,1.6-1.4,2.5c-0.3,0.9-0.5,1.9-0.5,2.9
			c0,0.7,0.1,1.4,0.3,2c0.2,0.6,0.6,1.2,1,1.6c0.4,0.5,1,0.8,1.6,1.1C87.4,17.2,88.2,17.3,89,17.3z"/>
		<path style="fill:#113D65;" d="M111.1,21.2H106l-3.1-20.6h5.2l1.6,14.7h0.1l8-14.7h5.6L111.1,21.2z"/>
	</g>
</g>
</svg>
