<?xml version="1.0" encoding="utf-8"?>
<!-- Generator: Adobe Illustrator 23.0.3, SVG Export Plug-In . SVG Version: 6.00 Build 0)  -->
<svg version="1.1" xmlns="http://www.w3.org/2000/svg" xmlns:xlink="http://www.w3.org/1999/xlink" x="0px" y="0px" width="305.6px"
	 height="64.3px" viewBox="0 0 305.6 64.3" style="enable-background:new 0 0 305.6 64.3;" xml:space="preserve">
<style type="text/css">
	.st0{clip-path:url(#SVGID_2_);}
	.st1{clip-path:url(#SVGID_4_);}
	.st2{opacity:0.2;clip-path:url(#SVGID_9_);fill:#F4802A;}
	.st3{clip-path:url(#SVGID_9_);}
	.st4{opacity:0.2;fill:#9354A1;}
	.st5{opacity:0.4;fill:#F4802A;}
	.st6{opacity:0.3;fill:#F4802A;}
	.st7{opacity:0.2;fill:#F4802A;}
	.st8{opacity:0.5;fill:#EB202D;}
	.st9{opacity:0.5;fill:#F4802A;}
	.st10{opacity:0.5;clip-path:url(#SVGID_9_);fill:#EB202D;}
	.st11{opacity:0.5;clip-path:url(#SVGID_9_);fill:#F4802A;}
	.st12{fill:#FFFFFF;}
	.st13{clip-path:url(#SVGID_10_);}
	.st14{clip-path:url(#SVGID_12_);}
	.st15{fill:#CDCDCD;}
	.st16{fill:#383E98;}
	.st17{fill:#2B2D73;}
	.st18{fill:#F4802A;}
	.st19{fill:#2D3288;}
	.st20{fill:url(#SVGID_15_);}
	.st21{fill:url(#SVGID_16_);}
	.st22{fill:url(#SVGID_17_);}
	.st23{fill:url(#SVGID_18_);}
	.st24{fill:url(#SVGID_19_);}
	.st25{fill:url(#SVGID_20_);}
	.st26{fill:url(#SVGID_21_);}
	.st27{fill:url(#SVGID_22_);}
	.st28{fill:url(#SVGID_23_);}
	.st29{fill:url(#SVGID_24_);}
	.st30{fill:url(#SVGID_25_);}
	.st31{fill:url(#SVGID_26_);}
	.st32{fill:url(#SVGID_27_);}
	.st33{fill:url(#SVGID_28_);}
	.st34{fill:url(#SVGID_29_);}
	.st35{fill:url(#SVGID_30_);}
	.st36{fill:url(#SVGID_31_);}
	.st37{fill:url(#SVGID_33_);}
	.st38{fill:#0872B9;}
	.st39{fill:#9D9D9D;}
	.st40{fill:url(#SVGID_34_);}
	.st41{fill:#EB202D;}
	.st42{fill:#F9A624;}
	.st43{opacity:0.2;fill:#6470B4;}
	.st44{fill:#FFFFFF;stroke:#F4802A;stroke-width:1.3007;stroke-miterlimit:10;}
	.st45{fill:url(#SVGID_35_);}
	.st46{fill:#FFFFFF;stroke:#F4802A;stroke-width:1.3009;stroke-miterlimit:10;}
	.st47{fill:url(#SVGID_37_);}
	.st48{fill:#15A564;}
	.st49{fill:#F05D44;}
	.st50{fill:#F1F0EE;}
	.st51{fill:#40C2D9;}
	.st52{fill:#2C180E;}
	.st53{fill:#A57357;}
	.st54{fill:#B4805D;}
	.st55{fill:none;stroke:#FFFFFF;stroke-width:2.3905;stroke-miterlimit:10;}
	.st56{fill:#BD875F;}
	.st57{fill:#3596D2;}
	.st58{fill:#1D7EC1;}
	.st59{fill:#432412;}
	.st60{fill:#EFCCA7;}
	.st61{fill:#E7C2AF;}
	.st62{fill:#D5B4A4;}
	.st63{fill:#9354A1;}
	.st64{fill:#DA6927;}
	.st65{fill:#666667;}
	.st66{clip-path:url(#SVGID_38_);}
	.st67{clip-path:url(#SVGID_40_);}
	.st68{fill:#BCD982;}
	.st69{fill:#6470B4;}
	.st70{fill:#272D68;}
	.st71{fill:#828DC5;}
	.st72{fill:#8D725E;}
	.st73{fill:#816957;}
	.st74{fill:#3F1F0F;}
	.st75{fill:#471F10;}
	.st76{fill:#CEB190;}
	.st77{fill:#DABF99;}
	.st78{fill:#5D3011;}
	.st79{opacity:0.6;fill:#076596;}
	.st80{fill:#4F2F23;}
	.st81{fill:#5B3726;}
	.st82{fill:#121110;}
	.st83{fill:#D8B19F;}
	.st84{fill:#AC842D;}
	.st85{opacity:0.3;fill:#383E98;}
	.st86{fill:#10101D;}
	.st87{fill:#833F30;}
	.st88{fill:#8D4831;}
	.st89{fill:#C39686;}
	.st90{fill:#92D8F3;}
	.st91{fill:#9B6656;}
	.st92{fill:#A3DCF7;}
	.st93{fill:#A46D59;}
	.st94{fill:#1E1614;}
	.st95{fill:#403635;}
	.st96{fill:#E4B2A0;}
	.st97{fill:#F0BDA8;}
	.st98{fill:none;stroke:#3596D2;stroke-miterlimit:10;}
	.st99{clip-path:url(#SVGID_43_);}
	.st100{clip-path:url(#SVGID_45_);}
	.st101{opacity:0.2;clip-path:url(#SVGID_49_);fill:#F4802A;}
	.st102{clip-path:url(#SVGID_49_);}
	.st103{opacity:0.5;clip-path:url(#SVGID_49_);fill:#EB202D;}
	.st104{opacity:0.5;clip-path:url(#SVGID_49_);fill:#F4802A;}
	.st105{fill:#003B71;}
	.st106{fill:#113D65;}
	.st107{clip-path:url(#SVGID_51_);}
	.st108{clip-path:url(#SVGID_53_);}
	.st109{fill:#141E79;}
	.st110{fill:#212B8F;}
	.st111{fill:#2E33A6;}
	.st112{fill:#6473DD;}
	.st113{fill:#8493FD;}
	.st114{fill:#672B8E;}
	.st115{fill:#9553AD;}
	.st116{fill:#17D0E4;}
	.st117{fill:#1FF3FE;}
	.st118{fill:#019BEB;}
	.st119{fill:#0071BA;}
	.st120{fill:#A0DEFE;}
	.st121{fill:#CECECE;}
	.st122{fill:#9E9E9E;}
	.st123{fill:#FE8225;}
	.st124{fill:#ED1C2B;}
	.st125{fill:#19A664;}
	.st126{fill:#017FCC;}
	.st127{fill:#F1F1EF;}
	.st128{fill:#FEA821;}
	.st129{fill:#F75C42;}
	.st130{fill:#BCE781;}
	.st131{clip-path:url(#SVGID_57_);}
	.st132{clip-path:url(#SVGID_59_);}
	.st133{clip-path:url(#SVGID_63_);}
	.st134{clip-path:url(#SVGID_65_);}
	.st135{clip-path:url(#SVGID_69_);}
	.st136{clip-path:url(#SVGID_71_);}
	.st137{clip-path:url(#SVGID_75_);}
	.st138{clip-path:url(#SVGID_77_);}
	.st139{clip-path:url(#SVGID_81_);}
	.st140{clip-path:url(#SVGID_83_);}
	.st141{clip-path:url(#SVGID_87_);}
	.st142{clip-path:url(#SVGID_89_);}
	.st143{fill:none;stroke:#FFFFFF;stroke-width:2.6699;stroke-miterlimit:10;}
	.st144{clip-path:url(#SVGID_93_);}
	.st145{clip-path:url(#SVGID_95_);}
	.st146{clip-path:url(#SVGID_99_);}
	.st147{clip-path:url(#SVGID_101_);}
	.st148{fill:none;stroke:#1FF3FE;stroke-width:0.75;stroke-miterlimit:10;}
	.st149{fill:url(#SVGID_104_);}
	.st150{fill:url(#SVGID_105_);}
	.st151{fill:url(#SVGID_106_);}
	.st152{fill:url(#SVGID_107_);}
	.st153{fill:url(#SVGID_108_);}
	.st154{fill:url(#SVGID_109_);}
	.st155{fill:url(#SVGID_110_);}
	.st156{fill:url(#SVGID_111_);}
	.st157{fill:url(#SVGID_112_);}
	.st158{fill:url(#SVGID_113_);}
	.st159{fill:url(#SVGID_114_);}
	.st160{fill:url(#SVGID_115_);}
	.st161{fill:url(#SVGID_116_);}
	.st162{fill:url(#SVGID_117_);}
	.st163{fill:url(#SVGID_118_);}
	.st164{fill:url(#SVGID_119_);}
	.st165{fill:url(#SVGID_120_);}
	.st166{fill:url(#SVGID_121_);}
</style>
<g id="background">
</g>
<g id="Layer_1">
	<g>
		<g>
			<path class="st17" d="M0,23.3h5.2l7.4,12.2h0V23.3h3.9v17.5h-5L3.9,28.3h0v12.5H0V23.3z"/>
			<path class="st17" d="M30.3,27.6c-0.3-0.4-0.7-0.7-1.3-0.9c-0.5-0.2-1-0.3-1.5-0.3c-0.3,0-0.6,0-0.9,0.1
				c-0.3,0.1-0.6,0.2-0.8,0.3c-0.3,0.1-0.5,0.3-0.6,0.6c-0.2,0.2-0.2,0.5-0.2,0.8c0,0.5,0.2,0.9,0.6,1.2c0.4,0.3,0.9,0.5,1.5,0.7
				c0.6,0.2,1.2,0.4,1.9,0.6c0.7,0.2,1.3,0.5,1.9,0.8c0.6,0.4,1.1,0.8,1.5,1.5c0.4,0.6,0.6,1.4,0.6,2.4c0,1-0.2,1.8-0.5,2.5
				c-0.4,0.7-0.9,1.3-1.5,1.8c-0.6,0.5-1.3,0.8-2.2,1.1c-0.8,0.2-1.7,0.3-2.6,0.3c-1.1,0-2.2-0.2-3.2-0.5c-1-0.3-1.9-0.9-2.7-1.7
				l2.7-3c0.4,0.5,0.9,0.9,1.5,1.2c0.6,0.3,1.2,0.4,1.9,0.4c0.3,0,0.6,0,1-0.1c0.3-0.1,0.6-0.2,0.9-0.3c0.3-0.1,0.5-0.3,0.6-0.6
				c0.2-0.2,0.2-0.5,0.2-0.8c0-0.5-0.2-0.9-0.6-1.2c-0.4-0.3-0.9-0.6-1.5-0.8c-0.6-0.2-1.3-0.4-2-0.6c-0.7-0.2-1.4-0.5-2-0.9
				c-0.6-0.4-1.1-0.8-1.5-1.4c-0.4-0.6-0.6-1.4-0.6-2.4c0-0.9,0.2-1.8,0.6-2.5c0.4-0.7,0.9-1.3,1.5-1.8c0.6-0.5,1.3-0.8,2.1-1.1
				c0.8-0.2,1.6-0.4,2.5-0.4c1,0,1.9,0.1,2.9,0.4c0.9,0.3,1.8,0.8,2.5,1.4L30.3,27.6z"/>
			<path class="st17" d="M41.1,33.3l-6.6-10h4.8l3.7,6.6l3.9-6.6h4.6l-6.6,10v7.5h-3.9V33.3z"/>
			<path class="st17" d="M57.6,23.3h3.2l7.6,17.5h-4.4l-1.5-3.7h-6.8l-1.5,3.7h-4.3L57.6,23.3z M59.1,28.4L57,33.8h4.3L59.1,28.4z"
				/>
		</g>
		<g>
			<path class="st18" d="M54.1,21h-43c-0.1,0-0.2-0.1-0.2-0.2c0-0.1,0.1-0.2,0.2-0.2h43c0.1,0,0.2,0.1,0.2,0.2
				C54.3,20.9,54.2,21,54.1,21z"/>
		</g>
		<g>
			<path class="st19" d="M84.9,12.1h2.9l9,13.5h0V12.1h2.2v16.4h-2.8L87.1,15h0v13.5h-2.2V12.1z"/>
			<path class="st19" d="M108.9,12.1h2l7,16.4h-2.6l-1.6-4.1h-7.8l-1.6,4.1h-2.6L108.9,12.1z M112.9,22.5l-3.1-7.5h0l-3.1,7.5H112.9
				z"/>
			<path class="st19" d="M121.8,14.2h-5.3v-2.1h12.8v2.1h-5.3v14.3h-2.2V14.2z"/>
			<path class="st19" d="M132.2,12.1h2.2v16.4h-2.2V12.1z"/>
			<path class="st19" d="M146.6,28.9c-1.3,0-2.4-0.2-3.5-0.7c-1.1-0.4-1.9-1-2.7-1.8c-0.7-0.8-1.3-1.7-1.8-2.7
				c-0.4-1-0.6-2.2-0.6-3.4c0-1.2,0.2-2.4,0.6-3.4c0.4-1.1,1-2,1.8-2.7c0.7-0.8,1.6-1.4,2.7-1.8c1.1-0.4,2.2-0.7,3.5-0.7
				s2.4,0.2,3.5,0.7c1,0.4,1.9,1,2.7,1.8c0.7,0.8,1.3,1.7,1.8,2.7s0.6,2.2,0.6,3.4c0,1.2-0.2,2.4-0.6,3.4c-0.4,1.1-1,2-1.8,2.7
				c-0.7,0.8-1.6,1.4-2.7,1.8C149,28.7,147.9,28.9,146.6,28.9z M146.6,26.9c0.9,0,1.8-0.2,2.5-0.5c0.8-0.3,1.4-0.8,1.9-1.4
				c0.5-0.6,1-1.3,1.3-2.1c0.3-0.8,0.4-1.6,0.4-2.5c0-0.9-0.1-1.7-0.4-2.5c-0.3-0.8-0.7-1.5-1.3-2.1c-0.5-0.6-1.2-1.1-1.9-1.4
				c-0.8-0.3-1.6-0.5-2.5-0.5c-0.9,0-1.8,0.2-2.5,0.5c-0.8,0.3-1.4,0.8-1.9,1.4c-0.5,0.6-1,1.3-1.3,2.1c-0.3,0.8-0.4,1.6-0.4,2.5
				c0,0.9,0.1,1.7,0.4,2.5c0.3,0.8,0.7,1.5,1.3,2.1c0.5,0.6,1.2,1.1,1.9,1.4C144.8,26.7,145.7,26.9,146.6,26.9z"/>
			<path class="st19" d="M158.8,12.1h2.9l9,13.5h0V12.1h2.2v16.4h-2.8L161.1,15h0v13.5h-2.2V12.1z"/>
			<path class="st19" d="M182.9,12.1h2l7,16.4h-2.6l-1.6-4.1h-7.8l-1.6,4.1h-2.6L182.9,12.1z M186.8,22.5l-3.1-7.5h0l-3.1,7.5H186.8
				z"/>
			<path class="st19" d="M194.5,12.1h2.2v14.3h7.5v2.1h-9.8V12.1z"/>
			<path class="st19" d="M214.4,25.1c0.4,0.6,0.9,1,1.5,1.3c0.6,0.3,1.3,0.4,1.9,0.4c0.4,0,0.7-0.1,1.1-0.2c0.4-0.1,0.7-0.3,1.1-0.5
				c0.3-0.2,0.6-0.5,0.8-0.9c0.2-0.3,0.3-0.7,0.3-1.2c0-0.6-0.2-1.1-0.6-1.4c-0.4-0.3-0.9-0.6-1.5-0.8c-0.6-0.2-1.2-0.4-1.9-0.6
				c-0.7-0.2-1.4-0.5-1.9-0.9c-0.6-0.4-1.1-0.9-1.5-1.5s-0.6-1.5-0.6-2.5c0-0.5,0.1-1,0.3-1.5c0.2-0.5,0.5-1,1-1.5
				c0.4-0.4,1-0.8,1.7-1.1c0.7-0.3,1.5-0.5,2.5-0.5c0.9,0,1.8,0.1,2.6,0.4c0.8,0.2,1.5,0.7,2.2,1.5l-1.8,1.6c-0.3-0.4-0.7-0.8-1.2-1
				c-0.5-0.3-1.1-0.4-1.7-0.4c-0.6,0-1.1,0.1-1.5,0.2c-0.4,0.2-0.7,0.4-1,0.6c-0.2,0.3-0.4,0.5-0.5,0.8c-0.1,0.3-0.2,0.6-0.2,0.8
				c0,0.7,0.2,1.2,0.6,1.6c0.4,0.4,0.9,0.7,1.5,0.9c0.6,0.2,1.2,0.4,1.9,0.6c0.7,0.2,1.4,0.4,1.9,0.8c0.6,0.3,1.1,0.8,1.5,1.3
				c0.4,0.6,0.6,1.3,0.6,2.3c0,0.8-0.2,1.5-0.5,2.1c-0.3,0.6-0.7,1.2-1.2,1.6c-0.5,0.4-1.1,0.8-1.8,1c-0.7,0.2-1.4,0.3-2.2,0.3
				c-1.1,0-2-0.2-3-0.6s-1.7-0.9-2.2-1.7L214.4,25.1z"/>
			<path class="st19" d="M230.6,14.2h-5.3v-2.1h12.8v2.1h-5.3v14.3h-2.2V14.2z"/>
			<path class="st19" d="M242.9,12.1v10.1c0,0.5,0.1,1,0.2,1.6c0.1,0.5,0.4,1.1,0.7,1.5c0.3,0.5,0.7,0.8,1.3,1.1s1.2,0.4,1.9,0.4
				c0.8,0,1.4-0.1,1.9-0.4c0.5-0.3,0.9-0.7,1.3-1.1c0.3-0.5,0.6-1,0.7-1.5c0.1-0.5,0.2-1.1,0.2-1.6V12.1h2.2v10.4
				c0,1-0.2,1.8-0.5,2.6c-0.3,0.8-0.8,1.5-1.3,2c-0.6,0.6-1.2,1-2,1.3c-0.8,0.3-1.6,0.5-2.5,0.5c-0.9,0-1.7-0.2-2.5-0.5
				c-0.8-0.3-1.4-0.7-2-1.3c-0.6-0.6-1-1.2-1.3-2c-0.3-0.8-0.5-1.6-0.5-2.6V12.1H242.9z"/>
			<path class="st19" d="M257.4,12.1h5.7c1.2,0,2.2,0.1,3,0.4c0.9,0.3,1.6,0.6,2.3,1.1c0.6,0.4,1.2,0.9,1.6,1.5
				c0.4,0.6,0.8,1.2,1,1.8c0.2,0.6,0.4,1.2,0.5,1.8c0.1,0.6,0.2,1.2,0.2,1.7c0,1.1-0.2,2.1-0.6,3c-0.4,1-1,1.9-1.7,2.6
				s-1.7,1.4-2.8,1.8c-1.1,0.5-2.4,0.7-3.9,0.7h-5.4V12.1z M259.6,26.4h2.8c0.9,0,1.8-0.1,2.7-0.4c0.8-0.3,1.6-0.6,2.2-1.1
				s1.1-1.1,1.5-1.9s0.6-1.7,0.6-2.7c0-0.5-0.1-1.1-0.3-1.8c-0.2-0.7-0.5-1.4-1-2c-0.5-0.6-1.1-1.2-2-1.6c-0.8-0.4-1.9-0.7-3.2-0.7
				h-3.3V26.4z"/>
			<path class="st19" d="M279.2,21.5l-6.2-9.4h2.8l4.5,7.2l4.6-7.2h2.7l-6.2,9.4v7h-2.2V21.5z"/>
			<path class="st19" d="M92.4,53.5c-1.3,0-2.4-0.2-3.5-0.7c-1.1-0.4-1.9-1-2.7-1.8c-0.7-0.8-1.3-1.7-1.8-2.7
				c-0.4-1-0.6-2.2-0.6-3.4c0-1.2,0.2-2.4,0.6-3.4c0.4-1.1,1-2,1.8-2.7c0.7-0.8,1.6-1.4,2.7-1.8c1-0.4,2.2-0.7,3.5-0.7
				c1.3,0,2.4,0.2,3.5,0.7c1.1,0.4,1.9,1,2.7,1.8c0.7,0.8,1.3,1.7,1.8,2.7c0.4,1.1,0.6,2.2,0.6,3.4c0,1.2-0.2,2.4-0.6,3.4
				c-0.4,1.1-1,2-1.8,2.7c-0.7,0.8-1.6,1.4-2.7,1.8C94.8,53.2,93.7,53.5,92.4,53.5z M92.4,51.4c0.9,0,1.8-0.2,2.5-0.5
				c0.8-0.3,1.4-0.8,1.9-1.4c0.5-0.6,1-1.3,1.3-2.1c0.3-0.8,0.4-1.6,0.4-2.5c0-0.9-0.1-1.7-0.4-2.5c-0.3-0.8-0.7-1.5-1.3-2.1
				s-1.2-1.1-1.9-1.4c-0.8-0.3-1.6-0.5-2.5-0.5s-1.8,0.2-2.5,0.5c-0.8,0.3-1.4,0.8-1.9,1.4s-1,1.3-1.3,2.1c-0.3,0.8-0.4,1.6-0.4,2.5
				c0,0.9,0.1,1.7,0.4,2.5c0.3,0.8,0.7,1.5,1.3,2.1c0.5,0.6,1.2,1.1,1.9,1.4C90.6,51.2,91.5,51.4,92.4,51.4z"/>
			<path class="st19" d="M104.6,36.6h10.3v2.1h-8.1v5.1h7.5V46h-7.5V53h-2.2V36.6z"/>
			<path class="st19" d="M129.1,46l-6.2-9.4h2.8l4.5,7.2l4.6-7.2h2.7l-6.2,9.4v7h-2.2V46z"/>
			<path class="st19" d="M147.4,53.5c-1.3,0-2.4-0.2-3.5-0.7c-1.1-0.4-1.9-1-2.7-1.8c-0.7-0.8-1.3-1.7-1.8-2.7
				c-0.4-1-0.6-2.2-0.6-3.4c0-1.2,0.2-2.4,0.6-3.4c0.4-1.1,1-2,1.8-2.7c0.7-0.8,1.6-1.4,2.7-1.8c1-0.4,2.2-0.7,3.5-0.7
				c1.3,0,2.4,0.2,3.5,0.7s1.9,1,2.7,1.8c0.7,0.8,1.3,1.7,1.8,2.7c0.4,1.1,0.6,2.2,0.6,3.4c0,1.2-0.2,2.4-0.6,3.4
				c-0.4,1.1-1,2-1.8,2.7c-0.7,0.8-1.6,1.4-2.7,1.8C149.8,53.2,148.7,53.5,147.4,53.5z M147.4,51.4c0.9,0,1.8-0.2,2.5-0.5
				c0.8-0.3,1.4-0.8,1.9-1.4c0.5-0.6,1-1.3,1.3-2.1c0.3-0.8,0.4-1.6,0.4-2.5c0-0.9-0.1-1.7-0.4-2.5c-0.3-0.8-0.7-1.5-1.3-2.1
				s-1.2-1.1-1.9-1.4c-0.8-0.3-1.6-0.5-2.5-0.5s-1.8,0.2-2.5,0.5c-0.8,0.3-1.4,0.8-1.9,1.4s-1,1.3-1.3,2.1c-0.3,0.8-0.4,1.6-0.4,2.5
				c0,0.9,0.1,1.7,0.4,2.5c0.3,0.8,0.7,1.5,1.3,2.1c0.5,0.6,1.2,1.1,1.9,1.4C145.6,51.2,146.5,51.4,147.4,51.4z"/>
			<path class="st19" d="M161.6,36.6v10.1c0,0.5,0.1,1,0.2,1.6c0.1,0.5,0.4,1.1,0.7,1.5c0.3,0.5,0.7,0.8,1.3,1.1
				c0.5,0.3,1.2,0.4,1.9,0.4c0.8,0,1.4-0.1,1.9-0.4c0.5-0.3,0.9-0.7,1.3-1.1c0.3-0.5,0.6-1,0.7-1.5c0.1-0.5,0.2-1.1,0.2-1.6V36.6
				h2.2V47c0,1-0.2,1.8-0.5,2.6c-0.3,0.8-0.8,1.5-1.3,2c-0.6,0.6-1.2,1-2,1.3c-0.8,0.3-1.6,0.5-2.5,0.5c-0.9,0-1.7-0.2-2.5-0.5
				c-0.8-0.3-1.4-0.7-2-1.3c-0.6-0.6-1-1.2-1.3-2c-0.3-0.8-0.5-1.6-0.5-2.6V36.6H161.6z"/>
			<path class="st19" d="M176.4,36.6h2.9l9,13.5h0V36.6h2.2V53h-2.8l-9.1-13.5h0V53h-2.2V36.6z"/>
			<path class="st19" d="M209.3,43.9V52c-0.4,0.2-0.9,0.5-1.4,0.6s-1,0.3-1.6,0.5c-0.5,0.1-1.1,0.2-1.7,0.3
				c-0.6,0.1-1.1,0.1-1.6,0.1c-1.4,0-2.6-0.2-3.7-0.7c-1.1-0.5-2-1.1-2.8-1.9c-0.7-0.8-1.3-1.7-1.7-2.7c-0.4-1-0.6-2.1-0.6-3.3
				c0-1.2,0.2-2.4,0.6-3.4c0.4-1.1,1-2,1.8-2.7c0.7-0.8,1.6-1.4,2.7-1.8c1-0.4,2.2-0.7,3.5-0.7c1.5,0,2.7,0.2,3.7,0.6
				c1,0.4,1.8,0.9,2.4,1.6l-1.6,1.7c-0.7-0.6-1.4-1.1-2.2-1.4c-0.8-0.3-1.6-0.4-2.4-0.4c-0.9,0-1.8,0.2-2.5,0.5
				c-0.8,0.3-1.4,0.8-1.9,1.4s-1,1.3-1.3,2.1c-0.3,0.8-0.4,1.6-0.4,2.5c0,0.9,0.2,1.8,0.5,2.6c0.3,0.8,0.8,1.5,1.3,2.1
				c0.6,0.6,1.2,1,2,1.4c0.8,0.3,1.6,0.5,2.5,0.5c0.8,0,1.5-0.1,2.2-0.2c0.7-0.1,1.3-0.4,1.8-0.6V46h-3.6v-2.1H209.3z"/>
			<path class="st19" d="M225.8,36.6h2l7,16.4h-2.6l-1.6-4.1h-7.8l-1.6,4.1h-2.6L225.8,36.6z M229.8,47l-3.1-7.5h0l-3.1,7.5H229.8z"
				/>
			<path class="st19" d="M237.1,36.6h5.7c1.2,0,2.2,0.1,3,0.4c0.9,0.3,1.6,0.6,2.3,1.1c0.6,0.4,1.2,0.9,1.6,1.5
				c0.4,0.6,0.8,1.2,1,1.8c0.2,0.6,0.4,1.2,0.5,1.8c0.1,0.6,0.2,1.2,0.2,1.7c0,1.1-0.2,2.1-0.6,3c-0.4,1-1,1.9-1.7,2.6
				c-0.8,0.8-1.7,1.4-2.8,1.8c-1.1,0.5-2.4,0.7-3.9,0.7h-5.4V36.6z M239.3,51h2.8c0.9,0,1.8-0.1,2.7-0.4c0.8-0.3,1.6-0.6,2.2-1.1
				c0.6-0.5,1.1-1.1,1.5-1.9c0.4-0.8,0.6-1.7,0.6-2.7c0-0.5-0.1-1.1-0.3-1.8c-0.2-0.7-0.5-1.4-1-2c-0.5-0.6-1.1-1.2-2-1.6
				c-0.8-0.4-1.9-0.7-3.2-0.7h-3.3V51z"/>
			<path class="st19" d="M257,36.6v10.1c0,0.5,0.1,1,0.2,1.6c0.1,0.5,0.4,1.1,0.7,1.5c0.3,0.5,0.7,0.8,1.3,1.1
				c0.5,0.3,1.2,0.4,1.9,0.4s1.4-0.1,1.9-0.4c0.5-0.3,0.9-0.7,1.3-1.1c0.3-0.5,0.6-1,0.7-1.5c0.1-0.5,0.2-1.1,0.2-1.6V36.6h2.2V47
				c0,1-0.2,1.8-0.5,2.6c-0.3,0.8-0.8,1.5-1.3,2c-0.6,0.6-1.2,1-2,1.3s-1.6,0.5-2.5,0.5s-1.7-0.2-2.5-0.5c-0.8-0.3-1.4-0.7-2-1.3
				c-0.6-0.6-1-1.2-1.3-2c-0.3-0.8-0.5-1.6-0.5-2.6V36.6H257z"/>
			<path class="st19" d="M271.9,36.6h2.2V51h7.5V53h-9.8V36.6z"/>
			<path class="st19" d="M285.7,38.7h-5.3v-2.1h12.8v2.1h-5.3V53h-2.2V38.7z"/>
			<path class="st19" d="M296.5,49.6c0.4,0.6,0.9,1,1.5,1.3c0.6,0.3,1.3,0.4,1.9,0.4c0.4,0,0.7-0.1,1.1-0.2c0.4-0.1,0.7-0.3,1.1-0.5
				c0.3-0.2,0.6-0.5,0.8-0.9c0.2-0.3,0.3-0.7,0.3-1.2c0-0.6-0.2-1.1-0.6-1.4c-0.4-0.3-0.9-0.6-1.5-0.8c-0.6-0.2-1.2-0.4-1.9-0.6
				c-0.7-0.2-1.4-0.5-1.9-0.9c-0.6-0.4-1.1-0.9-1.5-1.5s-0.6-1.5-0.6-2.5c0-0.5,0.1-1,0.3-1.5c0.2-0.5,0.5-1,1-1.5
				c0.4-0.4,1-0.8,1.7-1.1c0.7-0.3,1.5-0.5,2.5-0.5c0.9,0,1.8,0.1,2.6,0.4c0.8,0.2,1.5,0.7,2.2,1.5l-1.8,1.6c-0.3-0.4-0.7-0.8-1.2-1
				c-0.5-0.3-1.1-0.4-1.7-0.4c-0.6,0-1.1,0.1-1.5,0.2c-0.4,0.2-0.7,0.4-1,0.6c-0.2,0.3-0.4,0.5-0.5,0.8c-0.1,0.3-0.2,0.6-0.2,0.8
				c0,0.7,0.2,1.2,0.6,1.6c0.4,0.4,0.9,0.7,1.5,0.9c0.6,0.2,1.2,0.4,1.9,0.6s1.4,0.4,1.9,0.8c0.6,0.3,1.1,0.8,1.5,1.3
				c0.4,0.6,0.6,1.3,0.6,2.3c0,0.8-0.2,1.5-0.5,2.1c-0.3,0.6-0.7,1.2-1.2,1.6c-0.5,0.4-1.1,0.8-1.8,1c-0.7,0.2-1.4,0.3-2.2,0.3
				c-1.1,0-2-0.2-3-0.6c-0.9-0.4-1.7-0.9-2.2-1.7L296.5,49.6z"/>
		</g>
		<g>
			<linearGradient id="SVGID_2_" gradientUnits="userSpaceOnUse" x1="6.3637" y1="12.023" x2="59.4895" y2="12.023">
				<stop  offset="0.1225" style="stop-color:#F4802A"/>
				<stop  offset="0.2668" style="stop-color:#F37532"/>
				<stop  offset="0.5729" style="stop-color:#F1633F"/>
				<stop  offset="0.7948" style="stop-color:#F05D44"/>
				<stop  offset="1" style="stop-color:#EB202D"/>
			</linearGradient>
			<path style="fill:url(#SVGID_2_);" d="M6.8,20.8C11.2,10.7,21.2,3.6,32.9,3.6s21.7,7.1,26.1,17.1h0.4
				C55.1,10.5,44.8,3.3,32.9,3.3C21,3.3,10.8,10.5,6.4,20.8H6.8z"/>
			<linearGradient id="SVGID_4_" gradientUnits="userSpaceOnUse" x1="6.431" y1="52.3757" x2="59.4222" y2="52.3757">
				<stop  offset="0.1225" style="stop-color:#F4802A"/>
				<stop  offset="0.2668" style="stop-color:#F37532"/>
				<stop  offset="0.5729" style="stop-color:#F1633F"/>
				<stop  offset="0.7948" style="stop-color:#F05D44"/>
				<stop  offset="1" style="stop-color:#EB202D"/>
			</linearGradient>
			<path style="fill:url(#SVGID_4_);" d="M59,43.7c-4.4,10-14.4,17-26.1,17s-21.6-7-26.1-17H6.4c4.5,10.2,14.7,17.4,26.5,17.4
				c11.8,0,22-7.2,26.5-17.4H59z"/>
		</g>
		<g>
			<linearGradient id="SVGID_6_" gradientUnits="userSpaceOnUse" x1="2.8418" y1="10.3922" x2="63.0115" y2="10.3922">
				<stop  offset="0.1225" style="stop-color:#F4802A"/>
				<stop  offset="0.2668" style="stop-color:#F37532"/>
				<stop  offset="0.5729" style="stop-color:#F1633F"/>
				<stop  offset="0.7948" style="stop-color:#F05D44"/>
				<stop  offset="1" style="stop-color:#EB202D"/>
			</linearGradient>
			<path style="fill:url(#SVGID_6_);" d="M4.1,20.8C8.7,9.3,19.9,1.2,32.9,1.2s24.3,8.1,28.8,19.6H63C58.4,8.6,46.7,0,32.9,0
				S7.4,8.6,2.8,20.8H4.1z"/>
			<linearGradient id="SVGID_9_" gradientUnits="userSpaceOnUse" x1="2.9004" y1="54.0066" x2="62.9529" y2="54.0066">
				<stop  offset="0.1225" style="stop-color:#F4802A"/>
				<stop  offset="0.2668" style="stop-color:#F37532"/>
				<stop  offset="0.5729" style="stop-color:#F1633F"/>
				<stop  offset="0.7948" style="stop-color:#F05D44"/>
				<stop  offset="1" style="stop-color:#EB202D"/>
			</linearGradient>
			<path style="fill:url(#SVGID_9_);" d="M61.7,43.7c-4.6,11.4-15.7,19.4-28.7,19.4S8.8,55.1,4.2,43.7H2.9
				c4.6,12.1,16.3,20.6,30,20.6s25.4-8.6,30-20.6H61.7z"/>
		</g>
		<g>
			<linearGradient id="SVGID_10_" gradientUnits="userSpaceOnUse" x1="28.4273" y1="58.4439" x2="28.4273" y2="43.4584">
				<stop  offset="0.1225" style="stop-color:#F4802A"/>
				<stop  offset="0.2668" style="stop-color:#F37532"/>
				<stop  offset="0.5729" style="stop-color:#F1633F"/>
				<stop  offset="0.7948" style="stop-color:#F05D44"/>
				<stop  offset="1" style="stop-color:#EB202D"/>
			</linearGradient>
			<path style="fill:url(#SVGID_10_);" d="M30,43.7l-0.5,1.6c-0.6,2.1-1.2,4.2-1.8,6.4c-0.3,1.1-0.5,2.1-0.8,3.2
				c-0.2,1.1-0.5,2.2-0.7,3.3c0,0,0,0,0,0c0,0,0,0,0,0c0.4-1,0.7-2.1,1-3.1c0.3-1.1,0.6-2.1,1-3.2c0.6-2.1,1.1-4.3,1.7-6.4l0.4-1.8
				H30z"/>
			<linearGradient id="SVGID_12_" gradientUnits="userSpaceOnUse" x1="23.5371" y1="55.7539" x2="23.5371" y2="43.5004">
				<stop  offset="0.1225" style="stop-color:#F4802A"/>
				<stop  offset="0.2668" style="stop-color:#F37532"/>
				<stop  offset="0.5729" style="stop-color:#F1633F"/>
				<stop  offset="0.7948" style="stop-color:#F05D44"/>
				<stop  offset="1" style="stop-color:#EB202D"/>
			</linearGradient>
			<path style="fill:url(#SVGID_12_);" d="M27.1,43.7h-0.6l-0.1,0.2c-1.1,1.9-2.3,3.8-3.4,5.7c-0.5,1-1.1,1.9-1.6,2.9
				c-0.5,1-1,2-1.5,3c0,0,0,0,0,0c0,0,0,0,0,0c0.6-0.9,1.2-1.8,1.8-2.8c0.6-0.9,1.2-1.9,1.7-2.8c1.1-1.9,2.2-3.8,3.3-5.8L27.1,43.7z
				"/>
			<linearGradient id="SVGID_14_" gradientUnits="userSpaceOnUse" x1="18.5127" y1="51.4747" x2="18.5127" y2="43.5671">
				<stop  offset="0.1225" style="stop-color:#F4802A"/>
				<stop  offset="0.2668" style="stop-color:#F37532"/>
				<stop  offset="0.5729" style="stop-color:#F1633F"/>
				<stop  offset="0.7948" style="stop-color:#F05D44"/>
				<stop  offset="1" style="stop-color:#EB202D"/>
			</linearGradient>
			<path style="fill:url(#SVGID_14_);" d="M22.6,43.7h-0.9c-0.9,0.9-1.8,1.8-2.7,2.7c-0.8,0.8-1.5,1.6-2.3,2.4
				c-0.7,0.8-1.5,1.6-2.2,2.5c0,0,0,0,0,0c0,0,0,0,0,0c0.8-0.7,1.7-1.5,2.5-2.2c0.8-0.7,1.6-1.5,2.4-2.3
				C20.5,45.8,21.5,44.8,22.6,43.7z"/>
			<linearGradient id="SVGID_15_" gradientUnits="userSpaceOnUse" x1="33.2395" y1="59.3614" x2="33.2395" y2="43.4441">
				<stop  offset="0.1225" style="stop-color:#F4802A"/>
				<stop  offset="0.2668" style="stop-color:#F37532"/>
				<stop  offset="0.5729" style="stop-color:#F1633F"/>
				<stop  offset="0.7948" style="stop-color:#F05D44"/>
				<stop  offset="1" style="stop-color:#EB202D"/>
			</linearGradient>
			<path class="st20" d="M33.5,43.7H33l0,2.1c0,2.2-0.1,4.4-0.1,6.6c0,1.1,0,2.2,0.1,3.3c0,1.1,0.1,2.2,0.2,3.3c0,0,0,0,0,0
				c0,0,0,0,0,0c0.1-1.1,0.1-2.2,0.2-3.3c0.1-1.1,0.1-2.2,0.1-3.3c0-2.2,0-4.4-0.1-6.6L33.5,43.7z"/>
			<linearGradient id="SVGID_16_" gradientUnits="userSpaceOnUse" x1="47.9664" y1="51.4747" x2="47.9664" y2="43.5671">
				<stop  offset="0.1225" style="stop-color:#F4802A"/>
				<stop  offset="0.2668" style="stop-color:#F37532"/>
				<stop  offset="0.5729" style="stop-color:#F1633F"/>
				<stop  offset="0.7948" style="stop-color:#F05D44"/>
				<stop  offset="1" style="stop-color:#EB202D"/>
			</linearGradient>
			<path class="st21" d="M47.5,46.4c-0.9-0.9-1.8-1.8-2.7-2.7h-0.9c1,1.1,2.1,2.1,3.1,3.2c0.8,0.8,1.6,1.5,2.4,2.3
				c0.8,0.7,1.6,1.5,2.5,2.2c0,0,0,0,0,0c0,0,0,0,0,0c-0.7-0.8-1.5-1.7-2.2-2.5C49.1,48,48.3,47.2,47.5,46.4z"/>
			<linearGradient id="SVGID_17_" gradientUnits="userSpaceOnUse" x1="42.9419" y1="55.7539" x2="42.9419" y2="43.5004">
				<stop  offset="0.1225" style="stop-color:#F4802A"/>
				<stop  offset="0.2668" style="stop-color:#F37532"/>
				<stop  offset="0.5729" style="stop-color:#F1633F"/>
				<stop  offset="0.7948" style="stop-color:#F05D44"/>
				<stop  offset="1" style="stop-color:#EB202D"/>
			</linearGradient>
			<path class="st22" d="M45,52.5c-0.5-1-1-2-1.6-2.9c-1.1-1.9-2.2-3.8-3.4-5.7L40,43.7h-0.6l0.3,0.5c1.1,1.9,2.1,3.9,3.3,5.8
				c0.6,0.9,1.1,1.9,1.7,2.8c0.6,0.9,1.2,1.9,1.8,2.8c0,0,0,0,0,0c0,0,0,0,0,0C46.1,54.5,45.5,53.5,45,52.5z"/>
			<linearGradient id="SVGID_18_" gradientUnits="userSpaceOnUse" x1="38.0518" y1="58.4439" x2="38.0518" y2="43.4584">
				<stop  offset="0.1225" style="stop-color:#F4802A"/>
				<stop  offset="0.2668" style="stop-color:#F37532"/>
				<stop  offset="0.5729" style="stop-color:#F1633F"/>
				<stop  offset="0.7948" style="stop-color:#F05D44"/>
				<stop  offset="1" style="stop-color:#EB202D"/>
			</linearGradient>
			<path class="st23" d="M38.7,51.7c-0.5-2.1-1.2-4.3-1.8-6.4l-0.5-1.6H36l0.4,1.8c0.5,2.1,1,4.3,1.7,6.4c0.3,1.1,0.6,2.1,1,3.2
				c0.3,1.1,0.7,2.1,1,3.1c0,0,0,0,0,0c0,0,0,0,0,0c-0.2-1.1-0.4-2.2-0.7-3.3C39.2,53.8,39,52.8,38.7,51.7z"/>
		</g>
		<g>
			<linearGradient id="SVGID_19_" gradientUnits="userSpaceOnUse" x1="43.1317" y1="20.9145" x2="43.1317" y2="9.46">
				<stop  offset="0.1225" style="stop-color:#F4802A"/>
				<stop  offset="0.2668" style="stop-color:#F37532"/>
				<stop  offset="0.5729" style="stop-color:#F1633F"/>
				<stop  offset="0.7948" style="stop-color:#F05D44"/>
				<stop  offset="1" style="stop-color:#EB202D"/>
			</linearGradient>
			<path class="st24" d="M40.4,20.8c1-1.7,2.1-3.5,3.1-5.3c0.5-1,1.1-1.9,1.6-2.9c0.5-1,1-2,1.5-3c0,0,0,0,0,0c0,0,0,0,0,0
				c-0.6,0.9-1.2,1.8-1.8,2.8c-0.6,0.9-1.2,1.9-1.7,2.8c-1.1,1.8-2.1,3.7-3.2,5.6H40.4z"/>
			<linearGradient id="SVGID_20_" gradientUnits="userSpaceOnUse" x1="38.1377" y1="20.9453" x2="38.1377" y2="6.7811">
				<stop  offset="0.1225" style="stop-color:#F4802A"/>
				<stop  offset="0.2668" style="stop-color:#F37532"/>
				<stop  offset="0.5729" style="stop-color:#F1633F"/>
				<stop  offset="0.7948" style="stop-color:#F05D44"/>
				<stop  offset="1" style="stop-color:#EB202D"/>
			</linearGradient>
			<path class="st25" d="M36.7,20.8l0.3-0.9c0.6-2.1,1.2-4.2,1.8-6.4c0.3-1.1,0.5-2.1,0.8-3.2c0.2-1.1,0.5-2.2,0.7-3.3c0,0,0,0,0,0
				c0,0,0,0,0,0c-0.4,1-0.7,2.1-1,3.1c-0.3,1.1-0.6,2.1-1,3.2c-0.6,2.1-1.1,4.3-1.7,6.4l-0.3,1.1H36.7z"/>
			<linearGradient id="SVGID_21_" gradientUnits="userSpaceOnUse" x1="48.2949" y1="20.8656" x2="48.2949" y2="13.7213">
				<stop  offset="0.1225" style="stop-color:#F4802A"/>
				<stop  offset="0.2668" style="stop-color:#F37532"/>
				<stop  offset="0.5729" style="stop-color:#F1633F"/>
				<stop  offset="0.7948" style="stop-color:#F05D44"/>
				<stop  offset="1" style="stop-color:#EB202D"/>
			</linearGradient>
			<path class="st26" d="M44.6,20.8h0.9c0.7-0.7,1.4-1.3,2-2c0.8-0.8,1.5-1.6,2.3-2.4c0.7-0.8,1.5-1.6,2.2-2.5c0,0,0,0,0,0
				c0,0,0,0,0,0c-0.8,0.7-1.7,1.5-2.5,2.2c-0.8,0.7-1.6,1.5-2.4,2.3C46.2,19.1,45.4,19.9,44.6,20.8z"/>
			<linearGradient id="SVGID_22_" gradientUnits="userSpaceOnUse" x1="33.2395" y1="20.9558" x2="33.2395" y2="5.8675">
				<stop  offset="0.1225" style="stop-color:#F4802A"/>
				<stop  offset="0.2668" style="stop-color:#F37532"/>
				<stop  offset="0.5729" style="stop-color:#F1633F"/>
				<stop  offset="0.7948" style="stop-color:#F05D44"/>
				<stop  offset="1" style="stop-color:#EB202D"/>
			</linearGradient>
			<path class="st27" d="M33,20.8h0.5l0-1.5c0-2.2,0.1-4.4,0.1-6.6c0-1.1,0-2.2-0.1-3.3c0-1.1-0.1-2.2-0.2-3.3c0,0,0,0,0,0
				c0,0,0,0,0,0c-0.1,1.1-0.1,2.2-0.2,3.3c-0.1,1.1-0.1,2.2-0.1,3.3c0,2.2,0,4.4,0.1,6.6L33,20.8z"/>
			<linearGradient id="SVGID_23_" gradientUnits="userSpaceOnUse" x1="28.3413" y1="20.9453" x2="28.3413" y2="6.7811">
				<stop  offset="0.1225" style="stop-color:#F4802A"/>
				<stop  offset="0.2668" style="stop-color:#F37532"/>
				<stop  offset="0.5729" style="stop-color:#F1633F"/>
				<stop  offset="0.7948" style="stop-color:#F05D44"/>
				<stop  offset="1" style="stop-color:#EB202D"/>
			</linearGradient>
			<path class="st28" d="M27.8,13.5c0.5,2.1,1.2,4.3,1.8,6.4l0.3,0.9h0.5l-0.3-1.1c-0.5-2.1-1-4.3-1.7-6.4c-0.3-1.1-0.6-2.1-1-3.2
				c-0.3-1.1-0.7-2.1-1-3.1c0,0,0,0,0,0c0,0,0,0,0,0c0.2,1.1,0.4,2.2,0.7,3.3C27.2,11.3,27.5,12.4,27.8,13.5z"/>
			<linearGradient id="SVGID_24_" gradientUnits="userSpaceOnUse" x1="18.1841" y1="20.8656" x2="18.1841" y2="13.7213">
				<stop  offset="0.1225" style="stop-color:#F4802A"/>
				<stop  offset="0.2668" style="stop-color:#F37532"/>
				<stop  offset="0.5729" style="stop-color:#F1633F"/>
				<stop  offset="0.7948" style="stop-color:#F05D44"/>
				<stop  offset="1" style="stop-color:#EB202D"/>
			</linearGradient>
			<path class="st29" d="M18.9,18.8c0.7,0.7,1.3,1.4,2,2h0.9c-0.8-0.8-1.6-1.7-2.5-2.5c-0.8-0.8-1.6-1.5-2.4-2.3
				c-0.8-0.7-1.6-1.5-2.5-2.2c0,0,0,0,0,0c0,0,0,0,0,0c0.7,0.8,1.5,1.7,2.2,2.5C17.4,17.2,18.2,18,18.9,18.8z"/>
			<linearGradient id="SVGID_25_" gradientUnits="userSpaceOnUse" x1="23.3474" y1="20.9145" x2="23.3474" y2="9.4599">
				<stop  offset="0.1225" style="stop-color:#F4802A"/>
				<stop  offset="0.2668" style="stop-color:#F37532"/>
				<stop  offset="0.5729" style="stop-color:#F1633F"/>
				<stop  offset="0.7948" style="stop-color:#F05D44"/>
				<stop  offset="1" style="stop-color:#EB202D"/>
			</linearGradient>
			<path class="st30" d="M21.4,12.6c0.5,1,1,2,1.6,2.9c1,1.8,2.1,3.5,3.1,5.3h0.6c-1-1.9-2-3.8-3.2-5.6c-0.6-0.9-1.1-1.9-1.7-2.8
				c-0.6-0.9-1.2-1.9-1.8-2.8c0,0,0,0,0,0c0,0,0,0,0,0C20.4,10.6,20.9,11.6,21.4,12.6z"/>
		</g>
		<g>
			<path class="st18" d="M54.1,43.9h-43c-0.1,0-0.2-0.1-0.2-0.2s0.1-0.2,0.2-0.2h43c0.1,0,0.2,0.1,0.2,0.2S54.2,43.9,54.1,43.9z"/>
		</g>
	</g>
</g>
</svg>
